<?xml version="1.0" encoding="UTF-8" standalone="no"?>
<!DOCTYPE svg  PUBLIC '-//W3C//DTD SVG 1.1//EN'  'http://www.w3.org/Graphics/SVG/1.1/DTD/svg11.dtd'>
<svg xmlns="http://www.w3.org/2000/svg" version="1.1">
<defs>
<font id="AngleciaProDisplay" horiz-adv-x="262">
<font-face underline-thickness="50" unicode-range="U+0020-04D9" bbox="-45 -231 1181 902" descent="-220" x-height="500" cap-height="700" font-family="Anglecia Pro Display" font-weight="400" underline-position="-150" ascent="780" units-per-em="1000" panose-1="2 5 0 3 8 0 0 0 0 0"/>
<missing-glyph/>
<glyph horiz-adv-x="218" glyph-name="space" unicode=" "/>
<glyph horiz-adv-x="212" glyph-name="exclam" unicode="!" d="M118 196h-24q-13 177 -25 271q-15 113 -20 135q-6 32 -6 38q0 27 18 45.5t45 18.5t45 -18.5t18 -45.5q0 -9 -7 -38q-23 -117 -44 -406zM62 14q-17 18 -17 44t17 44q18 18 44 18t43 -18q18 -18 18 -44t-18 -44q-17 -18 -43 -18t-44 18z"/>
<glyph horiz-adv-x="289" glyph-name="quotedbl" unicode='&quot;' d="M96 499h-22q-3 44 -10 82t-12.5 58.5t-5.5 24.5q-2 24 18.5 34.5t41 0t18.5 -34.5q0 -4 -5.5 -24.5t-12.5 -58.5t-10 -82zM220 499h-21q-3 43 -10 81.5t-13 59t-6 24.5q-2 24 18.5 34.5t41 0t19.5 -34.5q0 -4 -6 -24.5t-13 -59t-10 -81.5z"/>
<glyph horiz-adv-x="566" glyph-name="numbersign" unicode="#" d="M185 450h-115v30h124l65 220h33l-65 -220h190l65 220h33l-65 -220h82v-30h-91l-60 -200h116v-31h-125l-65 -219h-33l65 219h-190l-65 -219h-33l65 219h-82v31h91zM408 450h-190l-60 -200h190z"/>
<glyph horiz-adv-x="589" glyph-name="dollar" unicode="$" d="M298 -6v-44h-23v44q-97 3 -176 47h-49v122h18q19 -91 89 -127q58 -27 118 -27l4 298q-13 4 -30 9t-18 5q-3 1 -44 16q-29 11 -43 20q-49 31 -64 57q-23 44 -23 94q0 90 58.5 143.5t168.5 54.5l1 44h24l-1 -45q83 -5 156 -46h49v-123h-18q-10 45 -31.5 77t-50 48 t-53.5 22.5t-52 7.5l-4 -278h2q47 -14 71 -24q31 -11 61 -28q51 -25 75 -63.5t28 -100.5q0 -92 -62 -146t-181 -57zM456 161q0 60 -36 87q-33 27 -118 52l-4 -290q75 5 116.5 44.5t41.5 106.5zM142 550q0 -52 30.5 -79t108.5 -51l3 270q-65 -5 -103.5 -43.5t-38.5 -96.5z "/>
<glyph horiz-adv-x="733" glyph-name="percent" unicode="%" d="M44 525q0 81 40.5 131t106.5 50q65 0 105.5 -49.5t40.5 -131.5q0 -83 -40 -132t-106 -49t-106.5 49t-40.5 132zM135 648q-21 -44 -21 -123t21 -123q21 -43 56 -43t56 43q21 44 21 123t-21 123q-21 43 -56 43t-56 -43zM594 700l-416 -700h-39l416 700h39zM395 175 q0 81 40.5 131t106.5 50q65 0 105.5 -49.5t40.5 -131.5q0 -83 -40 -132t-106 -49t-106.5 49t-40.5 132zM486 298q-21 -44 -21 -123t21 -123q21 -43 56 -43t56 43q21 44 21 123t-21 123q-21 43 -56 43t-56 -43z"/>
<glyph horiz-adv-x="719" glyph-name="ampersand" unicode="&amp;" d="M672 400l-62 -18q0 -145 -52 -236l97 -120l53 -16v-10h-164l-60 71q-76 -76 -196 -76q-112 0 -177 55q-65 56 -65 147q0 84 54 132q44 38 122 72q-64 82 -64 160q0 68 42 106t124 38q75 0 112.5 -32.5t37.5 -89.5q0 -100 -136 -167l206 -252q43 85 43 218l-62 18v9h147 v-9zM314 22q96 0 157 67l-216 265q-54 -31 -80 -69.5t-26 -99.5q0 -81 42 -122t123 -41zM255 589q0 -66 62 -146q66 31 99 65t33 80q0 44 -30.5 71.5t-76.5 27.5q-87 0 -87 -98z"/>
<glyph horiz-adv-x="170" glyph-name="quotesingle" unicode="&apos;" d="M96 499h-22q-3 44 -10 82t-12.5 58.5t-5.5 24.5q-2 24 18.5 34.5t41 0t18.5 -34.5q0 -4 -5.5 -24.5t-12.5 -58.5t-10 -82z"/>
<glyph horiz-adv-x="268" glyph-name="parenleft" unicode="(" d="M227 755l12 -11q-96 -188 -96 -469q0 -282 96 -469l-12 -11q-90 96 -135 209q-44 114 -44 271t44 271q45 113 135 209z"/>
<glyph horiz-adv-x="268" glyph-name="parenright" unicode=")" d="M41 -205l-11 11q96 191 96 469q0 279 -96 469l11 11q91 -97 134 -209q45 -113 45 -271q0 -159 -45 -271q-43 -112 -134 -209z"/>
<glyph horiz-adv-x="432" glyph-name="asterisk" unicode="*" d="M220 499q-21 -33 -36.5 -64t-22.5 -48.5t-9 -19.5q-8 -11 -21 -13t-23 6q-11 7 -12.5 20t6.5 24q2 2 15.5 14t38.5 36.5t50 54.5q-38 10 -72.5 15.5t-53.5 6.5t-21 2q-13 4 -19 15t-2 24q12 28 40 20q3 -1 19 -10.5t47 -26t67 -30.5q-3 39 -8.5 73.5t-9.5 52.5t-4 21 q0 20 15.5 28t31 0t15.5 -28q0 -3 -4 -21t-9.5 -52.5t-8.5 -73.5q37 15 67.5 31t46.5 25.5t18 10.5q30 10 41 -20q4 -12 -2.5 -24t-19.5 -16q-2 -1 -20.5 -2t-53 -6t-72.5 -15q25 -31 49.5 -55t39.5 -36.5t16 -13.5q8 -11 6.5 -24.5t-13.5 -20.5q-10 -8 -23.5 -5.5 t-20.5 13.5q-1 2 -8.5 19.5t-23 48.5t-36.5 64z"/>
<glyph horiz-adv-x="453" glyph-name="plus" unicode="+" d="M211 285h-173v30h173v173h31v-173h173v-30h-173v-174h-31v174z"/>
<glyph horiz-adv-x="201" glyph-name="comma" unicode="," d="M63 -116l-12 12q22 22 37.5 49.5t15.5 43.5q0 8 -4 11q-26 0 -43.5 17t-17.5 42q-3 40 36 55q38 15 66 -9q23 -18 21 -53q0 -69 -99 -168z"/>
<glyph horiz-adv-x="303" glyph-name="hyphen" unicode="-" d="M265 273h-227v30h227v-30z"/>
<glyph horiz-adv-x="201" glyph-name="period" unicode="." d="M100 120q27 0 44.5 -18t17.5 -44t-17.5 -44t-44.5 -18q-26 0 -43.5 18t-17.5 44t17.5 44t43.5 18z"/>
<glyph horiz-adv-x="344" glyph-name="slash" unicode="/" d="M342 750l-308 -850h-33l308 850h33z"/>
<glyph horiz-adv-x="653" glyph-name="zero" unicode="0" d="M48 350q0 161 77 259q78 97 202 97q125 0 201 -97q78 -97 78 -259t-78 -260q-76 -96 -201 -96t-202 96q-77 98 -77 260zM158 350q0 -163 45.5 -252t123.5 -89q77 0 123 89.5t46 251.5t-46 251.5t-123 89.5q-78 0 -123.5 -89.5t-45.5 -251.5z"/>
<glyph horiz-adv-x="356" glyph-name="one" unicode="1" d="M317 0h-271v10l83 19v633h-96v15l187 30l13 -14v-664l84 -19v-10z"/>
<glyph horiz-adv-x="528" glyph-name="two" unicode="2" d="M492 0h-458v38q151 139 203 198q141 160 141 308q0 71 -34 108t-97 37q-46 0 -87 -29v-99q0 -30 -17.5 -48t-45.5 -18q-27 0 -44 16.5t-17 46.5q0 62 61 104t159 42q109 0 168.5 -45.5t59.5 -131.5q0 -99 -80 -201q-29 -39 -88 -93q-65 -58 -98 -83q-58 -44 -110 -81h333 l34 92h17v-161z"/>
<glyph horiz-adv-x="591" glyph-name="three" unicode="3" d="M190 661v-89q0 -31 -17 -49t-45 -18t-45 17.5t-17 46.5q0 62 71 100q70 37 159 37q101 0 160 -48t59 -130q0 -66 -42 -110t-118 -59q89 -15 138.5 -61.5t49.5 -117.5q0 -85 -68 -136q-68 -50 -177 -50q-94 0 -166 36q-71 38 -71 101q0 29 16.5 46t44.5 17t45.5 -18 t17.5 -48v-89q41 -26 94 -26q72 0 115 44t43 122q0 83 -50.5 126t-141.5 43h-43v20h42q79 0 122 41t43 121q0 74 -35 115t-95 41q-52 0 -89 -25z"/>
<glyph horiz-adv-x="584" glyph-name="four" unicode="4" d="M525 0h-224v10l60 19v121h-312v15q86 154 131 280q44 124 44 255h104q0 -140 -65 -264q-64 -121 -191 -266h289v246l90 91l14 -14v-323h72v-20h-72v-121l60 -19v-10z"/>
<glyph horiz-adv-x="555" glyph-name="five" unicode="5" d="M174 122v-86q43 -26 86 -26q69 0 108.5 52.5t39.5 142.5q0 96 -47 149t-134 53q-75 0 -124 -37l-11 12l28 315q205 0 344 17v-86h-312l-45 -237q67 41 160 41q120 0 184 -58t64 -159q0 -102 -67 -161t-184 -59q-89 0 -151 34q-63 35 -63 95q0 30 16.5 47t44.5 17 q29 0 46 -17.5t17 -48.5z"/>
<glyph horiz-adv-x="585" glyph-name="six" unicode="6" d="M153 368q55 55 154 55q104 0 168 -58t64 -155q0 -98 -65 -157q-64 -58 -171 -58q-124 0 -190.5 82.5t-66.5 230.5q0 181 103.5 280.5t301.5 116.5l10 -10q-151 -30 -223.5 -110.5t-84.5 -216.5zM152 321q0 -141 36 -226q37 -85 109 -85q62 0 99 54t37 146q0 89 -40.5 141 t-105.5 52q-45 0 -81.5 -22.5t-53.5 -59.5z"/>
<glyph horiz-adv-x="550" glyph-name="seven" unicode="7" d="M293 0h-104q0 90 28 177q28 86 65 148l88 149q53 89 83 154h-347l-40 -92h-16v164h444v-15q-16 -50 -82 -212q-61 -150 -90 -259q-29 -108 -29 -214z"/>
<glyph horiz-adv-x="575" glyph-name="eight" unicode="8" d="M498 539q0 -109 -120 -161q78 -32 115 -73.5t37 -111.5q0 -93 -63.5 -146t-188.5 -53q-114 0 -173 45.5t-59 126.5q0 66 37.5 108t110.5 72q-63 26 -93 64t-30 104q0 88 56 140t166 52q99 0 152 -45t53 -122zM278 316l-59 20q-46 -26 -67 -61.5t-21 -97.5 q0 -167 156 -167q77 0 120 39.5t43 110.5q0 67 -38 96q-37 30 -134 60zM307 404l37 -13q38 27 55.5 60t17.5 83q0 75 -34.5 115.5t-97.5 40.5q-62 0 -99.5 -38t-37.5 -99q0 -60 36 -90q37 -29 123 -59z"/>
<glyph horiz-adv-x="582" glyph-name="nine" unicode="9" d="M427 332q-55 -54 -150 -54q-103 0 -168 56q-63 56 -63 153q0 99 66 158q68 60 175 60q122 0 185.5 -79t63.5 -227q0 -374 -420 -403l-10 10q172 25 244 113q65 80 77 213zM430 379q0 144 -34 227q-34 84 -106 84q-64 0 -102.5 -56t-38.5 -149q0 -87 40 -137t105 -50 q45 0 81.5 22t54.5 59z"/>
<glyph horiz-adv-x="201" glyph-name="colon" unicode=":" d="M100 120q27 0 44.5 -18t17.5 -44t-17.5 -44t-44.5 -18q-26 0 -43.5 18t-17.5 44t17.5 44t43.5 18zM100 504q27 0 44.5 -18t17.5 -44t-17.5 -44t-44.5 -18q-26 0 -43.5 18t-17.5 44t17.5 44t43.5 18z"/>
<glyph horiz-adv-x="201" glyph-name="semicolon" unicode=";" d="M63 -116l-12 12q22 22 37.5 49.5t15.5 43.5q0 8 -4 11q-26 0 -43.5 17t-17.5 42q-3 40 36 55q38 15 66 -9q23 -18 21 -53q0 -69 -99 -168zM100 504q27 0 44.5 -18t17.5 -44t-17.5 -44t-44.5 -18q-26 0 -43.5 18t-17.5 44t17.5 44t43.5 18z"/>
<glyph horiz-adv-x="453" glyph-name="less" unicode="&lt;" d="M49 286l341 160l14 -28l-307 -143l307 -143l-14 -27l-341 159v22z"/>
<glyph horiz-adv-x="453" glyph-name="equal" unicode="=" d="M415 356h-377v31h377v-31zM415 213h-377v30h377v-30z"/>
<glyph horiz-adv-x="453" glyph-name="greater" unicode="&gt;" d="M355 275l-306 143l13 28l342 -160v-22l-342 -159l-13 27z"/>
<glyph horiz-adv-x="507" glyph-name="question" unicode="?" d="M262 196h-24q-13 111 33 172q4 5 30 35.5t34 44t19 43t11 61.5q0 63 -33.5 100t-90.5 37q-43 0 -81 -27v-94q0 -30 -17.5 -48.5t-45.5 -18.5t-44.5 17t-16.5 48q0 59 60 98q61 40 151 40q104 0 164 -44.5t60 -123.5t-74 -142q-68 -55 -89 -79q-46 -54 -46 -119zM208 14 q-17 18 -17 44t17 44q18 18 44 18t44 -18t18 -44t-18 -44t-44 -18t-44 18z"/>
<glyph horiz-adv-x="876" glyph-name="at" unicode="@" d="M754 -44l12 -12q-49 -49 -131.5 -75.5t-180.5 -26.5q-190 0 -298 96t-108 264q0 163 104 258q103 94 296 94q191 0 285 -91q95 -90 95 -240q0 -107 -49 -167.5t-139 -60.5q-91 0 -105 56l-3 1q-56 -57 -137 -57q-80 0 -124.5 55t-44.5 149q0 108 59 165t167 57 q55 0 112 -20l44 23l14 -15v-350q0 -41 34 -41q39 0 62 51.5t23 139.5q0 324 -293 324q-152 0 -231.5 -86.5t-79.5 -241.5q0 -159 87 -246t259 -87q78 0 153 20q74 19 118 64zM531 72v313q-45 22 -81 22q-62 0 -95.5 -50.5t-33.5 -144.5q0 -85 31.5 -136t85.5 -51 q52 0 93 47z"/>
<glyph horiz-adv-x="755" glyph-name="A" unicode="A" d="M369 700h33l281 -671l64 -19v-10h-241v10l66 19l-84 203h-302l-88 -203l88 -19v-10h-178v10l68 19zM479 253l-138 337l-146 -337h284z"/>
<glyph horiz-adv-x="654" glyph-name="B" unicode="B" d="M19 691v9h320q106 0 173 -47q67 -46 67 -127q0 -65 -43 -108.5t-119 -58.5q89 -15 139.5 -61.5t50.5 -115.5q0 -83 -74 -133q-73 -49 -194 -49h-320v8l65 16v652zM192 348v-328h127q82 0 130 43t48 121q0 79 -47.5 121.5t-130.5 42.5h-127zM319 680h-127v-312h127 q69 0 109.5 40.5t40.5 115.5q0 74 -41 115t-109 41z"/>
<glyph horiz-adv-x="704" glyph-name="C" unicode="C" d="M641 107l11 -12q-99 -101 -259 -101q-157 0 -252 96q-93 96 -93 260q0 163 93 259q93 97 248 97q129 0 208 -60l42 25l10 -10v-138h-17q-20 98 -99 132q-63 28 -124 28q-118 0 -183 -85t-65 -244q0 -155 69 -241.5t200 -86.5q132 0 211 81z"/>
<glyph horiz-adv-x="726" glyph-name="D" unicode="D" d="M19 691v9h319q151 0 246 -95q94 -94 94 -255q0 -162 -94 -256t-246 -94h-319v8l65 16v652zM338 680h-146v-660h146q105 0 166 86t61 243q0 159 -61 245t-166 86z"/>
<glyph horiz-adv-x="619" glyph-name="E" unicode="E" d="M192 351v-331h312l47 102h16v-122h-548v8l65 16v652l-65 15v9h538v-123h-16l-47 103h-302v-308h244l21 78h15v-177h-15l-21 78h-244z"/>
<glyph horiz-adv-x="596" glyph-name="F" unicode="F" d="M435 273l-21 78h-222v-322l95 -19v-10h-268v10l65 19v647l-65 15v9h525v-123h-17l-46 103h-289v-308h222l21 78h16v-177h-16z"/>
<glyph horiz-adv-x="746" glyph-name="G" unicode="G" d="M726 325l-62 -18v-271l-13 -13l-55 23q-85 -52 -201 -52q-158 0 -253 95q-94 95 -94 261q0 164 93 260q95 96 250 96q129 0 209 -60l43 25l10 -10v-138h-17q-23 99 -101 132q-63 28 -125 28q-119 0 -184 -86t-65 -249q0 -151 64 -240q65 -89 184 -89q90 0 148 45v243 l-65 18v10h234v-10z"/>
<glyph horiz-adv-x="745" glyph-name="H" unicode="H" d="M19 0v10l65 19v642l-65 19v10h238v-10l-65 -19v-304h362v304l-65 19v10h237v-10l-65 -19v-642l65 -19v-10h-237v10l65 19v317h-362v-317l65 -19v-10h-238z"/>
<glyph horiz-adv-x="276" glyph-name="I" unicode="I" d="M253 690l-62 -19v-642l62 -19v-10h-233v10l65 19v642l-65 19v10h233v-10z"/>
<glyph horiz-adv-x="276" glyph-name="J" unicode="J" d="M85 16v655l-65 19v10h232v-10l-61 -19v-655q0 -71 -38.5 -123t-118.5 -98l-11 11q62 89 62 210z"/>
<glyph horiz-adv-x="689" glyph-name="K" unicode="K" d="M253 690l-65 -19v-358l336 358l-81 19v10h180v-10l-71 -19l-212 -228l276 -417l58 -16v-10h-160l-248 370l-78 -84v-257l65 -19v-10h-237v10l65 19v642l-65 19v10h237v-10z"/>
<glyph horiz-adv-x="587" glyph-name="L" unicode="L" d="M192 671v-651h277l47 102h16v-122h-513v8l65 16v647l-65 19v10h238v-10z"/>
<glyph horiz-adv-x="920" glyph-name="M" unicode="M" d="M859 690l-62 -19l46 -642l62 -19v-10h-234v10l65 19l-42 579l-257 -608h-33l-261 609l-43 -582l61 -19v-8h-147v8l65 19l47 644l-65 19v10h153l250 -590l248 590h147v-10z"/>
<glyph horiz-adv-x="697" glyph-name="N" unicode="N" d="M19 0v8l65 19v644l-65 19v10h178l395 -550v523l-65 18v9h151v-9l-65 -18v-673h-31l-477 662v-635l65 -19v-8h-151z"/>
<glyph horiz-adv-x="769" glyph-name="O" unicode="O" d="M48 350q0 161 93 259q93 97 244 97q150 0 243 -97q94 -97 94 -259q0 -163 -94 -260q-93 -96 -243 -96q-151 0 -244 96q-93 98 -93 260zM161 349q0 -162 60.5 -251t163.5 -89t163 89t60 251q0 163 -60 252.5t-163 89.5t-163.5 -89.5t-60.5 -252.5z"/>
<glyph horiz-adv-x="616" glyph-name="P" unicode="P" d="M288 680h-96v-651l100 -19v-10h-273v10l65 19v647l-65 15v9h282q121 0 194 -54q74 -54 74 -146t-74 -146q-73 -54 -194 -54h-81l-13 13v7h81q79 0 125 47t46 133t-46 133t-125 47z"/>
<glyph horiz-adv-x="769" glyph-name="Q" unicode="Q" d="M760 -67l9 -9q-53 -53 -140 -53q-71 0 -132 31l-53 27q-8 4 -58 37l-50 33q-132 13 -210 108t-78 242q0 162 93 260q93 97 244 97q150 0 243 -97q94 -97 94 -259q0 -138 -69 -229q-68 -91 -185 -115q29 -11 72 -38q94 -59 143 -59q53 0 77 24zM161 349q0 -161 60 -247.5 t164 -86.5q103 0 163 87t60 247q0 162 -60 252t-163 90t-163.5 -89.5t-60.5 -252.5z"/>
<glyph horiz-adv-x="659" glyph-name="R" unicode="R" d="M567 510q0 -74 -48.5 -122.5t-132.5 -59.5q36 -14 69 -72l132 -230l58 -16v-10h-155l-182 323h-116v-294l65 -19v-10h-238v10l65 19v647l-65 15v9h300q113 0 180 -51q68 -50 68 -139zM306 680h-114v-337h114q70 0 110.5 44t40.5 124t-41 124.5t-110 44.5z"/>
<glyph horiz-adv-x="589" glyph-name="S" unicode="S" d="M65 11l-10 10v142h18q23 -93 90 -127q55 -27 116 -27q83 0 130 40t47 112q0 68 -48 96q-27 18 -51 26q-28 10 -76 24l-38 11q-9 4 -35 12q-24 8 -67 29q-23 12 -51 43q-33 39 -33 106q0 90 59.5 144t170.5 54q95 0 168 -47l42 29l10 -10v-142h-18q-20 94 -83 126 q-51 29 -104 29q-72 0 -116 -39t-44 -102q0 -47 28 -77q10 -11 37 -24q22 -10 43 -18l56 -18q47 -14 71 -24q31 -11 61 -28q51 -25 75 -63.5t28 -100.5q0 -93 -64.5 -148t-187.5 -55q-104 0 -181 47z"/>
<glyph horiz-adv-x="672" glyph-name="T" unicode="T" d="M623 577l-46 103h-187v-651l65 -19v-10h-238v10l65 19v651h-186l-47 -103h-16v123h607v-123h-17z"/>
<glyph horiz-adv-x="719" glyph-name="U" unicode="U" d="M699 691l-65 -18v-413q0 -123 -76 -195q-76 -71 -198 -71q-124 0 -200 72t-76 194v411l-65 19v10h238v-10l-65 -19v-411q0 -106 57 -166.5t151 -60.5q96 0 154 61q60 61 60 166v413l-65 18v9h150v-9z"/>
<glyph horiz-adv-x="755" glyph-name="V" unicode="V" d="M394 0h-33l-289 671l-64 19v10h241v-10l-66 -19l238 -561l236 561l-88 19v10h178v-10l-68 -19z"/>
<glyph horiz-adv-x="1189" glyph-name="W" unicode="W" d="M838 0h-33l-212 508l-208 -508h-32l-281 671l-64 19v10h241v-10l-66 -19l230 -561l169 424l-58 137l-64 19v10h241v-10l-66 -19l230 -561l226 561l-88 19v10h178v-10l-68 -19z"/>
<glyph horiz-adv-x="742" glyph-name="X" unicode="X" d="M487 10l66 19l-218 302l-224 -302l84 -19v-10h-179v10l71 19l235 317l-233 325l-61 19v10h238v-10l-65 -19l199 -280l199 280l-85 19v10h179v-10l-70 -19l-210 -296l251 -346l62 -19v-10h-239v10z"/>
<glyph horiz-adv-x="724" glyph-name="Y" unicode="Y" d="M249 690l-66 -19l218 -345l221 345l-84 19v10h178v-10l-71 -19l-234 -367v-275l62 -19v-10h-234v10l65 19v275l-234 367l-62 19v10h241v-10z"/>
<glyph horiz-adv-x="613" glyph-name="Z" unicode="Z" d="M577 0h-536v15l415 665h-342l-48 -103h-17v123h519v-15l-413 -665h357l48 102h17v-122z"/>
<glyph horiz-adv-x="285" glyph-name="bracketleft" unicode="[" d="M267 740l-112 -19v-892l112 -19v-10h-206v950h206v-10z"/>
<glyph horiz-adv-x="344" glyph-name="backslash" unicode="\" d="M34 750l308 -850h-33l-308 850h33z"/>
<glyph horiz-adv-x="285" glyph-name="bracketright" unicode="]" d="M18 -190l112 19v892l-112 19v10h206v-950h-206v10z"/>
<glyph horiz-adv-x="405" glyph-name="asciicircum" unicode="^" d="M33 507l162 198h15l162 -198l-10 -11l-160 134l-159 -134z"/>
<glyph horiz-adv-x="630" glyph-name="underscore" unicode="_" d="M628 -81h-627v31h627v-31z"/>
<glyph horiz-adv-x="277" glyph-name="grave" unicode="`" d="M41 646l57 58l138 -141l-10 -11z"/>
<glyph horiz-adv-x="546" glyph-name="a" unicode="a" d="M366 60l-3 3q-73 -69 -179 -69q-67 0 -101 30.5t-34 85.5q0 79 79 113q54 23 219 50l1 1h1h1h1h1h1l1 1h1h1h1h1h1l1 1h1h2v94q0 54 -28 85.5t-76 31.5q-39 0 -74 -23v-81q0 -30 -17 -48t-44 -18t-43.5 17t-16.5 46q0 56 58 89q58 34 139 34q95 0 150.5 -42t55.5 -110 v-305q0 -25 24 -25q22 0 33 11l7 -7q-27 -27 -91 -27q-66 0 -74 62zM363 86v175h-1h-1h-1l-1 -1h-1h-1h-1h-1h-1q-116 -18 -149 -36q-50 -27 -50 -101q0 -45 22 -69.5t61 -24.5q71 0 125 57z"/>
<glyph horiz-adv-x="582" glyph-name="b" unicode="b" d="M79 28v659l-60 13v11l151 16l13 -14v-213l-3 -62l3 -3q66 69 164 69q95 0 145.5 -65t50.5 -178q0 -130 -68.5 -198t-202.5 -68q-109 0 -193 33zM183 413v-384q56 -19 95 -19q77 0 118 61t41 174q0 101 -39 162q-38 62 -101 62q-67 0 -114 -56z"/>
<glyph horiz-adv-x="555" glyph-name="c" unicode="c" d="M380 377v86q-43 26 -85 26q-69 0 -109 -60.5t-40 -163.5q0 -115 47.5 -177.5t138.5 -62.5q87 0 147 60l11 -12q-78 -78 -199 -78t-186.5 67.5t-65.5 185.5q0 120 66.5 188t187.5 68q84 0 148 -35q63 -35 63 -94q0 -30 -17 -47t-45 -17t-45 18t-17 48z"/>
<glyph horiz-adv-x="584" glyph-name="d" unicode="d" d="M504 713v-680l60 -13v-11l-150 -12l-13 13l3 50l-3 3q-65 -68 -164 -68q-97 0 -147.5 64.5t-50.5 178.5q0 127 64.5 196.5t180.5 69.5q62 0 117 -27v210l-60 13v11l150 16zM401 86v377q-55 26 -99 26q-75 0 -115.5 -61.5t-40.5 -173.5q0 -101 38 -163q39 -62 103 -62 q67 0 114 57z"/>
<glyph horiz-adv-x="558" glyph-name="e" unicode="e" d="M509 263l-14 -13h-349q0 -108 49.5 -166t144.5 -58q88 0 147 59l11 -12q-78 -78 -201 -78t-190.5 67.5t-67.5 181.5q0 119 70 189q71 71 181 71q97 0 161 -56q63 -56 63 -145q0 -22 -5 -40zM294 489q-62 0 -103.5 -59.5t-44.5 -164.5l266 15q0 102 -30.5 155.5 t-87.5 53.5z"/>
<glyph horiz-adv-x="357" glyph-name="f" unicode="f" d="M19 488l60 19v67q0 72 45 111t130 39q60 0 100 -23t40 -64q0 -24 -13.5 -39t-36.5 -15q-25 0 -42 17.5t-17 46.5v54q-18 8 -29 8q-34 0 -53.5 -36.5t-19.5 -98.5v-74h162v-20h-162v-451l90 -19v-10h-254v10l60 19v451h-60v8z"/>
<glyph horiz-adv-x="562" glyph-name="g" unicode="g" d="M511 490l-68 -21h-43q75 -45 75 -130q0 -75 -58 -118t-152 -43q-79 0 -130 30q-28 -31 -28 -69q0 -55 79 -55h169q160 0 160 -123q0 -79 -70.5 -121.5t-206.5 -42.5q-98 0 -151.5 22.5t-53.5 66.5q0 57 92 110q-70 19 -70 95q0 33 15.5 60.5t52.5 63.5q-67 45 -67 124 q0 75 58 118q58 45 151 45q4 0 36 -2h210v-10zM376 340q0 69 -30 108t-81 39t-80.5 -38.5t-29.5 -108.5t29.5 -108.5t80.5 -38.5t81 38.5t30 108.5zM365 -11h-180q-6 0 -30 2q-39 -43 -39 -84q0 -50 35.5 -71.5t107.5 -21.5q90 0 141 28t51 78q0 31 -21.5 50t-64.5 19z"/>
<glyph horiz-adv-x="610" glyph-name="h" unicode="h" d="M183 407v-378l53 -19v-10h-217v10l60 19v658l-60 13v11l151 16l13 -14v-213l-3 -68l3 -3q37 35 90.5 55t105.5 20q76 0 114 -44.5t38 -127.5v-303l60 -19v-10h-217v10l53 19v286q0 154 -99 154q-36 0 -77 -17.5t-68 -44.5z"/>
<glyph glyph-name="i" unicode="i" d="M243 0h-224v10l60 19v438l-60 13v11l151 16l13 -14v-464l60 -19v-10zM73 589q-20 20 -20 51t20 51t51 20t51 -20q21 -20 21 -51t-21 -51q-20 -20 -51 -20t-51 20z"/>
<glyph glyph-name="j" unicode="j" d="M79 16v451l-60 13v11l151 16l13 -14v-477q0 -71 -37.5 -123.5t-116.5 -97.5l-11 11q61 88 61 210zM73 589q-20 20 -20 51t20 51t51 20t51 -20q21 -20 21 -51t-21 -51q-20 -20 -51 -20t-51 20z"/>
<glyph horiz-adv-x="563" glyph-name="k" unicode="k" d="M552 0h-148l-160 262l-61 -66v-167l60 -19v-10h-224v10l60 19v658l-60 13v11l151 16l13 -14v-490l234 248l-77 19v10h170v-10l-66 -19l-130 -141l185 -304l53 -16v-10z"/>
<glyph glyph-name="l" unicode="l" d="M243 0h-224v10l60 19v658l-60 13v11l151 16l13 -14v-684l60 -19v-10z"/>
<glyph horiz-adv-x="886" glyph-name="m" unicode="m" d="M183 404v-375l51 -19v-10h-215v10l60 19v438l-60 13v11l151 16l13 -14l-3 -61l3 -3q32 35 80.5 55t94.5 20q90 0 121 -78q38 36 89.5 57t100.5 21q138 0 138 -172v-303l60 -19v-10h-215v10l51 19v286q0 154 -91 154q-74 0 -128 -60q11 -36 11 -77v-303l51 -19v-10h-206 v10l51 19v286q0 154 -87 154q-32 0 -65 -17.5t-56 -47.5z"/>
<glyph horiz-adv-x="610" glyph-name="n" unicode="n" d="M183 407v-378l53 -19v-10h-217v10l60 19v438l-60 13v11l151 16l13 -14l-3 -61l3 -3q36 35 90 55t106 20q76 0 114 -44.5t38 -127.5v-303l60 -19v-10h-217v10l53 19v286q0 72 -25.5 113t-77.5 41q-37 0 -76 -17t-65 -45z"/>
<glyph horiz-adv-x="583" glyph-name="o" unicode="o" d="M292 504q112 0 182 -70t70 -185q0 -116 -70 -185q-69 -69 -182 -69q-112 0 -183 69q-70 69 -70 185t70 185q70 70 183 70zM146 249q0 -113 39.5 -176t106.5 -63q68 0 107 63t39 176q0 115 -39 177.5t-107 62.5q-67 0 -106.5 -63t-39.5 -177z"/>
<glyph horiz-adv-x="582" glyph-name="p" unicode="p" d="M273 -200h-254v10l60 19v638l-60 13v11l151 16l13 -14l-3 -55l3 -3q66 69 164 69q95 0 145.5 -65t50.5 -178q0 -126 -64 -196t-179 -70q-68 0 -117 27v-193l90 -19v-10zM183 413v-376q51 -27 98 -27q75 0 115.5 61.5t40.5 173.5q0 100 -38 162t-102 62q-67 0 -114 -56z "/>
<glyph horiz-adv-x="572" glyph-name="q" unicode="q" d="M504 493v-664l60 -19v-10h-223v10l60 19v171l3 60l-3 3q-65 -68 -164 -68q-96 0 -147 64.5t-51 177.5q0 129 68.5 198t197.5 69q67 0 134 -24l52 27zM401 86v376q-53 27 -99 27q-75 0 -115.5 -61.5t-40.5 -173.5q0 -101 38 -163q39 -62 103 -62q67 0 114 57z"/>
<glyph horiz-adv-x="484" glyph-name="r" unicode="r" d="M19 10l60 19v438l-60 13v11l151 16l13 -14l-3 -88l3 -3q17 28 22 35q52 67 124 67q49 0 82.5 -30.5t33.5 -77.5q0 -33 -16.5 -50t-44.5 -17q-29 0 -46.5 18t-17.5 49v80q-4 4 -16 4q-41 0 -70.5 -33t-45.5 -69l-5 -12v-337l90 -19v-10h-254v10z"/>
<glyph horiz-adv-x="457" glyph-name="s" unicode="s" d="M59 9l-10 10v109h21q25 -118 147 -118q58 0 93.5 27t35.5 74q0 42 -29 60t-99 36l-50 14q-12 3 -43 17q-36 17 -52.5 44t-20.5 76q0 69 44.5 107.5t132.5 38.5q71 0 128 -30l21 17l10 -10v-108h-20q-15 65 -53 92t-82 24q-51 0 -81 -25.5t-30 -67.5q0 -36 24.5 -54.5 t87.5 -36.5l45 -15q19 -6 40 -15q26 -10 40 -21q62 -47 57 -112q0 -70 -49 -108.5t-148 -38.5q-81 0 -139 31z"/>
<glyph horiz-adv-x="384" glyph-name="t" unicode="t" d="M79 480h-61v8q96 22 152 127l13 -13v-102h164v-20h-164v-351q0 -49 21 -76t62 -27q45 0 80 35l11 -11q-52 -55 -136 -55q-68 0 -105 36.5t-37 97.5v351z"/>
<glyph horiz-adv-x="607" glyph-name="u" unicode="u" d="M528 493v-460l60 -13v-11l-151 -12l-13 13l3 57l-3 3q-35 -36 -85 -55.5t-102 -19.5q-76 0 -117 42.5t-41 115.5v314l-60 13v11l151 16l13 -14v-323q0 -141 104 -141q80 0 137 63v375l-60 13v11l150 16z"/>
<glyph horiz-adv-x="601" glyph-name="v" unicode="v" d="M314 0h-29l-215 471l-59 19v10h228v-10l-61 -19l164 -363l162 363l-83 19v10h169v-10l-64 -19z"/>
<glyph horiz-adv-x="899" glyph-name="w" unicode="w" d="M630 0h-37l-142 341l-143 -341h-36l-202 471l-59 19v10h222v-10l-55 -19l152 -372l110 268l-44 104l-55 19v10h223v-10l-61 -19l148 -372l148 372l-82 19v10h168v-10l-63 -19z"/>
<glyph horiz-adv-x="585" glyph-name="x" unicode="x" d="M344 10l61 19l-148 198l-152 -198l80 -19v-10h-169v10l66 19l162 214l-166 228l-57 19v10h225v-10l-60 -19l137 -186l142 186l-80 19v10h169v-10l-65 -19l-153 -202l177 -240l57 -19v-10h-226v10z"/>
<glyph horiz-adv-x="601" glyph-name="y" unicode="y" d="M288 -9l-218 480l-59 19v10h228v-10l-61 -19l164 -363l162 363l-83 19v10h169v-10l-64 -19l-212 -471q-49 -108 -86 -156q-34 -46 -83 -46q-36 0 -62 18.5t-26 54.5q0 26 13.5 40.5t37.5 14.5t39 -15t15 -40v-40q6 -3 11 -3q26 0 51.5 38.5t63.5 124.5z"/>
<glyph horiz-adv-x="483" glyph-name="z" unicode="z" d="M445 0h-409v15l298 468h-239l-32 -92h-17v109h394v-15l-297 -468h253l32 92h17v-109z"/>
<glyph horiz-adv-x="371" glyph-name="braceleft" unicode="{" d="M97 275q64 -20 101.5 -82.5t37.5 -152.5q0 -110 26 -170t72 -60v-15q-88 0 -143 66q-54 66 -54 177q0 110 -26 169.5t-72 59.5v16q46 0 72 59.5t26 169.5q0 111 54 177q55 66 143 66v-15q-46 0 -72 -60t-26 -170q0 -92 -36.5 -153.5t-102.5 -81.5z"/>
<glyph horiz-adv-x="189" glyph-name="bar" unicode="|" d="M110 750v-950h-31v950h31z"/>
<glyph horiz-adv-x="371" glyph-name="braceright" unicode="}" d="M276 275q-66 20 -102.5 81.5t-36.5 153.5q0 110 -26 170t-72 60v15q88 0 142 -66q55 -65 55 -177q0 -110 26 -169.5t72 -59.5v-16q-46 0 -72 -59.5t-26 -169.5q0 -112 -55 -177q-54 -66 -142 -66v15q46 0 72 60t26 170q0 90 37.5 152.5t101.5 82.5z"/>
<glyph horiz-adv-x="469" glyph-name="asciitilde" unicode="~" d="M43 243l-12 12q57 57 90 79.5t58 22.5q23 0 67 -26q44 -25 72 -25q56 0 108 52l12 -11q-104 -105 -154 -105q-21 0 -67 25q-47 26 -74 26q-50 0 -100 -50z"/>
<glyph horiz-adv-x="212" glyph-name="exclamdown" unicode="¡" d="M94 500h24q13 -211 25 -329q15 -137 19 -164q7 -35 7 -47q0 -27 -18 -45.5t-45 -18.5t-45 18.5t-18 45.5q0 10 6 47q24 134 45 493zM62 586q-17 18 -17 44t17 43q18 18 44 18t43 -18q18 -17 18 -43t-18 -44q-17 -18 -43 -18t-44 18z"/>
<glyph horiz-adv-x="555" glyph-name="cent" unicode="¢" d="M292 -5v-45h-23v46q-112 6 -171 72.5t-59 179.5q0 114 60 181t170 74v47h23v-46h1q84 0 148 -35q63 -35 63 -94q0 -30 -17 -47t-45 -17t-45 18t-17 48v86q-44 26 -85 26h-3v-461q18 -3 40 -3q87 0 147 60l11 -12q-78 -78 -198 -78zM142 265q0 -194 127 -231v453 q-60 -11 -93.5 -70t-33.5 -152z"/>
<glyph horiz-adv-x="566" glyph-name="sterling" unicode="£" d="M79 342h-61v8l61 12v122q0 103 59.5 161.5t166.5 58.5q79 0 141 -35q61 -34 61 -94q0 -30 -17 -47t-45 -17t-45.5 18t-17.5 48v86q-35 26 -72 26q-60 0 -93.5 -50.5t-33.5 -138.5v-138h203v-20h-203q0 -142 -49 -264q43 25 78 25q29 0 87 -26q56 -25 92 -25q71 0 140 51 l12 -11q-133 -105 -195 -105q-31 0 -88 25q-60 26 -96 26q-64 0 -129 -50l-12 12q21 16 26 20q12 10 30 23v299z"/>
<glyph horiz-adv-x="512" glyph-name="currency" unicode="¤" d="M87 300q0 64 35 111l-70 71l22 22l70 -70q44 38 112 38q69 0 113 -37l69 69l22 -22l-69 -69q37 -44 37 -113q0 -66 -38 -113l70 -69l-22 -22l-70 70q-46 -37 -112 -37q-67 0 -111 38l-71 -71l-22 22l71 71q-36 43 -36 111zM120 300q0 -60 37.5 -98t98.5 -38q62 0 100 38 t38 98q0 62 -38 100.5t-100 38.5q-61 0 -98.5 -38.5t-37.5 -100.5z"/>
<glyph horiz-adv-x="724" glyph-name="yen" unicode="¥" d="M304 236h-135v31h135v37l-234 367l-62 19v10h241v-10l-66 -19l218 -345l221 345l-84 19v10h178v-10l-71 -19l-234 -367v-37h135v-31h-135v-89h135v-31h-135v-87l62 -19v-10h-234v10l65 19v87h-135v31h135v89z"/>
<glyph horiz-adv-x="189" glyph-name="brokenbar" unicode="¦" d="M79 750h31v-425h-31v425zM110 225v-425h-31v425h31z"/>
<glyph horiz-adv-x="507" glyph-name="section" unicode="§" d="M86 442q-47 39 -47 99q0 75 59.5 119t161.5 44q91 0 149 -40q59 -39 59 -98q0 -32 -17 -48.5t-45 -16.5t-45 18t-17 49v94q-41 27 -79 27q-58 0 -92 -36.5t-34 -91.5q0 -91 115 -132q10 -3 35.5 -12t37 -13t34 -13.5t34 -17t27 -19.5t23 -24t13.5 -28.5t6 -35.5 q0 -50 -41 -109q48 -41 48 -99q0 -74 -61 -118.5t-164 -44.5q-91 0 -150 40q-60 39 -60 98q0 31 16.5 48t44.5 17t45.5 -18.5t17.5 -48.5v-94q40 -27 81 -27q60 0 95 38q36 37 36 91q0 47 -32 80t-84 50q-10 4 -40 13.5t-44 14.5t-38.5 15.5t-37 20.5t-27 24.5t-20.5 32 t-6 38.5q0 62 43 114zM406 169q13 30 13 55q0 39 -33 70t-83 47l-106 40q-59 23 -95 48q-13 -30 -13 -60q0 -37 33 -67.5t82 -46.5q41 -13 107 -39q58 -21 95 -47z"/>
<glyph glyph-name="dieresis" unicode="¨" d="M-27 577q-18 18 -18 46t18 46t46 18t46 -18t18 -46t-18 -46t-46 -18t-46 18zM243 687q28 0 46.5 -18t18.5 -46t-18.5 -46t-46.5 -18q-27 0 -45.5 18t-18.5 46t18.5 46t45.5 18z"/>
<glyph horiz-adv-x="796" glyph-name="copyright" unicode="©" d="M147 99q-104 104 -104 251t104 251t251 104t251 -104t104 -251t-104 -251t-251 -104t-251 104zM172 575q-93 -93 -93 -225t93 -226q94 -93 226 -93t225 93q94 94 94 226t-94 225q-93 94 -225 94t-226 -94zM528 229l6 -6q-50 -51 -130 -51t-127 48t-47 130t47 130t125 48 q66 0 101 -28l25 13l5 -5v-71h-9q-19 79 -109 79q-57 0 -87.5 -41.5t-30.5 -121.5q0 -77 32.5 -119.5t97.5 -42.5q63 0 101 38z"/>
<glyph horiz-adv-x="289" glyph-name="ordfeminine" unicode="ª" d="M185 480l-1 2q-38 -35 -89 -35q-67 0 -67 58q0 31 23 48q9 6 32 14q20 7 38 10q13 3 52 10l11 2v47q0 27 -12.5 42.5t-35.5 15.5q-16 0 -33 -10v-41q0 -24 -17 -33.5t-34 0t-17 30.5q0 28 29.5 44.5t72.5 16.5q51 0 80 -21t29 -55v-152q0 -7 5.5 -9.5t11.5 -1.5t10 5 l4 -4q-14 -14 -52 -14q-36 0 -40 31zM184 494v87q-30 -4 -43 -8q-11 -1 -27 -9q-24 -11 -24 -52q0 -44 37 -44q31 0 57 26z"/>
<glyph horiz-adv-x="411" glyph-name="guillemotleft" unicode="«" d="M198 118l-161 154v16l161 154l11 -10l-97 -152l97 -152zM353 118l-161 154v16l161 154l10 -10l-97 -152l97 -152z"/>
<glyph horiz-adv-x="503" glyph-name="logicalnot" unicode="¬" d="M434 335h-396v30h427v-130h-31v100z"/>
<glyph horiz-adv-x="303" glyph-name="uni00AD" unicode="­" d="M265 285h-227v30h227v-30z"/>
<glyph horiz-adv-x="796" glyph-name="registered" unicode="®" d="M147 99q-104 104 -104 251t104 251t251 104t251 -104t104 -251t-104 -251t-251 -104t-251 104zM172 575q-93 -93 -93 -225t93 -226q94 -93 226 -93t225 93q94 94 94 226t-94 225q-93 94 -225 94t-226 -94zM532 440q0 -36 -24 -60t-65 -31q21 -6 37 -36l63 -114l30 -8v-6 h-88l-89 161h-51v-146l33 -9v-6h-129v6l33 9v322l-33 9v4h155q58 0 93 -25.5t35 -69.5zM397 524h-52v-167h52q32 0 51 22t19 62q0 41 -18.5 62t-51.5 21z"/>
<glyph horiz-adv-x="303" glyph-name="overscore" unicode="¯" d="M275 595h-248v30h248v-30z"/>
<glyph horiz-adv-x="259" glyph-name="degree" unicode="°" d="M34 609q0 43 26 69.5t68 26.5q44 0 70.5 -26.5t26.5 -69.5q0 -42 -27 -68.5t-70 -26.5q-41 0 -67.5 26.5t-26.5 68.5zM87 654q-16 -17 -16 -45t16 -45t42 -17t42 17q17 17 17 45t-17 45q-16 18 -42 18t-42 -18z"/>
<glyph horiz-adv-x="453" glyph-name="plusminus" unicode="±" d="M211 335h-173v30h173v173h31v-173h173v-30h-173v-174h-31v174zM415 50h-377v30h377v-30z"/>
<glyph horiz-adv-x="276" glyph-name="twosuperior" unicode="²" d="M254 350h-233v22q92 87 119 123q48 65 48 129q0 70 -59 70q-21 0 -38 -12v-50q0 -18 -9.5 -28t-25.5 -10q-35 0 -35 36q0 32 31.5 52t80.5 20q118 0 118 -89q0 -54 -45 -104t-145 -119h165l19 48h9v-88z"/>
<glyph horiz-adv-x="309" glyph-name="threesuperior" unicode="³" d="M106 682v-47q0 -18 -9.5 -28t-25.5 -10q-15 0 -25 9.5t-10 26.5q0 34 37 52t82 18q52 0 82.5 -24t30.5 -65q0 -68 -81 -85q45 -7 69.5 -30t24.5 -59q0 -43 -34 -68t-91 -25q-51 0 -87 19t-36 51q0 22 17.5 31t35 -0.5t17.5 -33.5v-46q19 -11 42 -11q34 0 54 22t20 61 q0 84 -92 84h-21v10h21q77 0 77 81q0 78 -59 78q-20 0 -39 -11z"/>
<glyph horiz-adv-x="277" glyph-name="acute" unicode="´" d="M51 552l-10 11l138 141l57 -58z"/>
<glyph horiz-adv-x="607" glyph-name="mu" unicode="µ" d="M79 -102v569l-60 13v11l151 16l13 -14v-323q0 -141 104 -141q80 0 137 63v375l-60 13v11l150 16l14 -14v-460l60 -13v-11l-151 -12l-13 13l3 57l-3 3q-69 -75 -177 -75q-68 0 -105 43q9 -40 19.5 -74t16 -48.5t4.5 -17.5q0 -23 -14.5 -37.5t-36.5 -14.5q-23 0 -37.5 15 t-14.5 37z"/>
<glyph horiz-adv-x="493" glyph-name="paragraph" unicode="¶" d="M342 40v170q-132 0 -213 66t-81 179t81 179t213 66h132v-10l-60 -19v-631q0 -79 -37.5 -137t-116.5 -108l-11 11q93 94 93 234z"/>
<glyph horiz-adv-x="201" glyph-name="middot" unicode="·" d="M100 362q27 0 44.5 -18t17.5 -44t-17.5 -43.5t-44.5 -17.5q-26 0 -43.5 17.5t-17.5 43.5t17.5 44t43.5 18z"/>
<glyph horiz-adv-x="185" glyph-name="cedilla" unicode="¸" d="M27 -108l62 108h19l-29 -52q125 0 73 -86q-23 -39 -82 -93l-8 9q47 44 47 81q0 19 -17 26t-65 7z"/>
<glyph horiz-adv-x="195" glyph-name="onesuperior" unicode="¹" d="M172 350h-146v6l42 9v315h-47v8l102 16l7 -8v-331l42 -9v-6z"/>
<glyph horiz-adv-x="302" glyph-name="ordmasculine" unicode="º" d="M23 575q0 57 35.5 92t92.5 35t92.5 -35t35.5 -92t-35.5 -92t-92.5 -35t-92.5 35t-35.5 92zM151 455q64 0 64 120t-64 120q-31 0 -48 -31t-17 -89t17 -89t48 -31z"/>
<glyph horiz-adv-x="411" glyph-name="guillemotright" unicode="»" d="M212 442l161 -154v-16l-161 -154l-10 10l97 152l-97 152zM58 442l161 -154v-16l-161 -154l-11 10l97 152l-97 152z"/>
<glyph horiz-adv-x="573" glyph-name="onequarter" unicode="¼" d="M541 0h-122v6l30 9v60h-150v7q45 85 65 145t20 123h62q0 -67 -32 -128t-102 -137h137v114l55 55l7 -8v-161h35v-10h-35v-60l30 -9v-6zM447 700l-304 -700h-33l304 700h33zM171 350h-145v6l41 9v315h-46v8l101 16l7 -8v-331l42 -9v-6z"/>
<glyph horiz-adv-x="616" glyph-name="onehalf" unicode="½" d="M171 350h-145v6l41 9v315h-46v8l101 16l7 -8v-331l42 -9v-6zM447 700l-304 -700h-33l304 700h33zM589 0h-231v22q50 47 64 62q18 18 48 54q53 65 53 136q0 70 -57 70q-21 0 -38 -12v-50q0 -18 -9.5 -28t-25.5 -10q-34 0 -34 36q0 32 31.5 52t79.5 20q55 0 85.5 -22.5 t30.5 -66.5q0 -54 -44 -104t-143 -119h162l20 48h8v-88z"/>
<glyph horiz-adv-x="652" glyph-name="threequarters" unicode="¾" d="M103 682v-47q0 -18 -9.5 -28t-25.5 -10q-15 0 -24.5 9.5t-9.5 26.5q0 34 36 52q38 18 82 18q52 0 82.5 -24t30.5 -65q0 -68 -80 -85q45 -7 69.5 -30t24.5 -59q0 -43 -34.5 -68t-91.5 -25q-47 0 -85 18q-37 18 -37 52q0 35 34 35q16 0 25.5 -10t9.5 -28v-46q19 -11 42 -11 q34 0 54 22t20 61q0 84 -90 84h-22v10h22q76 0 76 81q0 37 -16 57.5t-44 20.5q-22 0 -39 -11zM617 0h-121v6l30 9v60h-151v7q85 154 85 268h62q0 -67 -32 -128t-102 -137h138v114l54 55l7 -8v-161h35v-10h-35v-60l30 -9v-6zM522 700l-304 -700h-33l304 700h33z"/>
<glyph horiz-adv-x="507" glyph-name="questiondown" unicode="¿" d="M245 500h23q13 -133 -33 -206q-6 -10 -29 -43t-33 -51t-20.5 -53.5t-10.5 -73.5q0 -74 33 -118t92 -44q39 0 80 27v94q0 30 17.5 48.5t45.5 18.5t44.5 -17t16.5 -47q0 -59 -60 -99q-59 -40 -149 -40q-105 0 -165.5 53t-60.5 147q0 95 73 163q2 2 20 18.5t22 20.5t19.5 20 t20.5 23.5t16.5 24t16 29t11 30t8.5 36t2 39.5zM316 629q0 -26 -18 -43.5t-44 -17.5t-43.5 18t-17.5 43q0 26 17.5 44t43.5 18t44 -17.5t18 -44.5z"/>
<glyph horiz-adv-x="755" glyph-name="Agrave" unicode="À" d="M369 700h33l281 -671l64 -19v-10h-241v10l66 19l-84 203h-302l-88 -203l88 -19v-10h-178v10l68 19zM479 253l-138 337l-146 -337h284zM266 827l57 57l139 -141l-11 -11z"/>
<glyph horiz-adv-x="755" glyph-name="Aacute" unicode="Á" d="M369 700h33l281 -671l64 -19v-10h-241v10l66 19l-84 203h-302l-88 -203l88 -19v-10h-178v10l68 19zM479 253l-138 337l-146 -337h284zM317 732l-11 11l139 141l57 -57z"/>
<glyph horiz-adv-x="755" glyph-name="Acircumflex" unicode="Â" d="M369 700h33l281 -671l64 -19v-10h-241v10l66 19l-84 203h-302l-88 -203l88 -19v-10h-178v10l68 19zM479 253l-138 337l-146 -337h284zM242 743l134 141h15l135 -141l-10 -11l-132 78l-132 -78z"/>
<glyph horiz-adv-x="755" glyph-name="Atilde" unicode="Ã" d="M369 700h33l281 -671l64 -19v-10h-241v10l66 19l-84 203h-302l-88 -203l88 -19v-10h-178v10l68 19zM479 253l-138 337l-146 -337h284zM227 758l-12 12q49 49 76 68t48 19q18 0 56 -23t60 -23q45 0 88 45l12 -12q-90 -90 -129 -90q-18 0 -56 23q-38 24 -61 24 q-39 0 -82 -43z"/>
<glyph horiz-adv-x="755" glyph-name="Adieresis" unicode="Ä" d="M369 700h33l281 -671l64 -19v-10h-241v10l66 19l-84 203h-302l-88 -203l88 -19v-10h-178v10l68 19zM479 253l-138 337l-146 -337h284zM207 804q0 27 18.5 45.5t45.5 18.5q28 0 46.5 -18.5t18.5 -45.5q0 -28 -18.5 -46.5t-46.5 -18.5q-27 0 -45.5 18.5t-18.5 46.5z M432 804q0 27 18 45.5t46 18.5q27 0 45.5 -18.5t18.5 -45.5q0 -28 -18.5 -46.5t-45.5 -18.5q-28 0 -46 18.5t-18 46.5z"/>
<glyph horiz-adv-x="755" glyph-name="Aring" unicode="Å" d="M369 700h33l281 -671l64 -19v-10h-241v10l66 19l-84 203h-302l-88 -203l88 -19v-10h-178v10l68 19zM479 253l-138 337l-146 -337h284zM300 808q0 36 23.5 58.5t60.5 22.5t60.5 -22.5t23.5 -58.5q0 -38 -23.5 -59.5t-60.5 -21.5t-60.5 21.5t-23.5 59.5zM351 852 q-12 -17 -12 -44t12 -44q13 -17 33 -17t32 16q12 17 12 45t-12 44q-12 17 -32 17t-33 -17z"/>
<glyph horiz-adv-x="843" glyph-name="AE" unicode="Æ" d="M365 8l64 16l-35 208h-210l-86 -203l88 -19v-10h-178v10l68 19l285 671h420v-123h-16l-47 103h-299l53 -308h188l21 78h15v-177h-15l-21 78h-185l57 -331h196l47 102h16v-122h-426v8zM391 253l-57 337l-142 -337h199z"/>
<glyph horiz-adv-x="704" glyph-name="Ccedilla" unicode="Ç" d="M327 -108l58 102q-154 1 -246 97q-91 95 -91 259q0 163 93 259q93 97 248 97q129 0 208 -60l42 25l10 -10v-138h-17q-20 98 -99 132q-63 28 -124 28q-118 0 -183 -85t-65 -244q0 -155 69 -241.5t200 -86.5q132 0 211 81l11 -12q-93 -96 -248 -101l-25 -46q125 0 73 -86 q-23 -39 -82 -93l-7 9q46 43 46 81q0 19 -17 26t-65 7z"/>
<glyph horiz-adv-x="619" glyph-name="Egrave" unicode="È" d="M192 351v-331h312l47 102h16v-122h-548v8l65 16v652l-65 15v9h538v-123h-16l-47 103h-302v-308h244l21 78h15v-177h-15l-21 78h-244zM192 827l56 57l139 -141l-11 -11z"/>
<glyph horiz-adv-x="619" glyph-name="Eacute" unicode="É" d="M192 351v-331h312l47 102h16v-122h-548v8l65 16v652l-65 15v9h538v-123h-16l-47 103h-302v-308h244l21 78h15v-177h-15l-21 78h-244zM242 732l-10 11l138 141l57 -57z"/>
<glyph horiz-adv-x="619" glyph-name="Ecircumflex" unicode="Ê" d="M192 351v-331h312l47 102h16v-122h-548v8l65 16v652l-65 15v9h538v-123h-16l-47 103h-302v-308h244l21 78h15v-177h-15l-21 78h-244zM167 743l135 141h15l135 -141l-11 -11l-132 78l-131 -78z"/>
<glyph horiz-adv-x="619" glyph-name="Edieresis" unicode="Ë" d="M192 351v-331h312l47 102h16v-122h-548v8l65 16v652l-65 15v9h538v-123h-16l-47 103h-302v-308h244l21 78h15v-177h-15l-21 78h-244zM133 804q0 27 18.5 45.5t45.5 18.5q28 0 46.5 -18.5t18.5 -45.5q0 -28 -18.5 -46.5t-46.5 -18.5q-27 0 -45.5 18.5t-18.5 46.5zM358 804 q0 27 18 45.5t46 18.5q27 0 45.5 -18.5t18.5 -45.5q0 -28 -18.5 -46.5t-45.5 -18.5q-28 0 -46 18.5t-18 46.5z"/>
<glyph horiz-adv-x="276" glyph-name="Igrave" unicode="Ì" d="M253 690l-62 -19v-642l62 -19v-10h-233v10l65 19v642l-65 19v10h233v-10zM21 827l56 57l139 -141l-11 -11z"/>
<glyph horiz-adv-x="276" glyph-name="Iacute" unicode="Í" d="M253 690l-62 -19v-642l62 -19v-10h-233v10l65 19v642l-65 19v10h233v-10zM71 732l-10 11l138 141l57 -57z"/>
<glyph horiz-adv-x="276" glyph-name="Icircumflex" unicode="Î" d="M253 690l-62 -19v-642l62 -19v-10h-233v10l65 19v642l-65 19v10h233v-10zM-4 743l134 141h16l134 -141l-10 -11l-132 78l-132 -78z"/>
<glyph horiz-adv-x="276" glyph-name="Idieresis" unicode="Ï" d="M253 690l-62 -19v-642l62 -19v-10h-233v10l65 19v642l-65 19v10h233v-10zM-17 804q0 27 18 45.5t46 18.5t46 -18.5t18 -45.5q0 -28 -18 -46.5t-46 -18.5t-46 18.5t-18 46.5zM165 804q0 27 18 45.5t46 18.5t46 -18.5t18 -45.5q0 -28 -18 -46.5t-46 -18.5t-46 18.5 t-18 46.5z"/>
<glyph horiz-adv-x="726" glyph-name="Eth" unicode="Ð" d="M84 346h-63v9l63 12v309l-65 15v9h319q151 0 246 -95q94 -94 94 -255q0 -162 -94 -256t-246 -94h-319v8l65 16v322zM338 680h-146v-313h171v-21h-171v-326h146q105 0 166 86t61 243q0 159 -61 245t-166 86z"/>
<glyph horiz-adv-x="697" glyph-name="Ntilde" unicode="Ñ" d="M19 0v8l65 19v644l-65 19v10h178l395 -550v523l-65 18v9h151v-9l-65 -18v-673h-31l-477 662v-635l65 -19v-8h-151zM192 758l-13 12q51 49 77.5 68t46.5 19q19 0 57 -23t60 -23q44 0 87 45l12 -12q-90 -90 -128 -90q-17 0 -55 23q-38 24 -62 24q-39 0 -82 -43z"/>
<glyph horiz-adv-x="769" glyph-name="Ograve" unicode="Ò" d="M48 350q0 161 93 259q93 97 244 97q150 0 243 -97q94 -97 94 -259q0 -163 -94 -260q-93 -96 -243 -96q-151 0 -244 96q-93 98 -93 260zM161 349q0 -162 60.5 -251t163.5 -89t163 89t60 251q0 163 -60 252.5t-163 89.5t-163.5 -89.5t-60.5 -252.5zM266 827l57 57l139 -141 l-11 -11z"/>
<glyph horiz-adv-x="769" glyph-name="Oacute" unicode="Ó" d="M48 350q0 161 93 259q93 97 244 97q150 0 243 -97q94 -97 94 -259q0 -163 -94 -260q-93 -96 -243 -96q-151 0 -244 96q-93 98 -93 260zM161 349q0 -162 60.5 -251t163.5 -89t163 89t60 251q0 163 -60 252.5t-163 89.5t-163.5 -89.5t-60.5 -252.5zM317 732l-11 11l139 141 l57 -57z"/>
<glyph horiz-adv-x="769" glyph-name="Ocircumflex" unicode="Ô" d="M48 350q0 161 93 259q93 97 244 97q150 0 243 -97q94 -97 94 -259q0 -163 -94 -260q-93 -96 -243 -96q-151 0 -244 96q-93 98 -93 260zM161 349q0 -162 60.5 -251t163.5 -89t163 89t60 251q0 163 -60 252.5t-163 89.5t-163.5 -89.5t-60.5 -252.5zM242 743l135 141h15 l135 -141l-11 -11l-132 78l-131 -78z"/>
<glyph horiz-adv-x="769" glyph-name="Otilde" unicode="Õ" d="M48 350q0 161 93 259q93 97 244 97q150 0 243 -97q94 -97 94 -259q0 -163 -94 -260q-93 -96 -243 -96q-151 0 -244 96q-93 98 -93 260zM161 349q0 -162 60.5 -251t163.5 -89t163 89t60 251q0 163 -60 252.5t-163 89.5t-163.5 -89.5t-60.5 -252.5zM228 758l-12 12 q49 49 76 68t48 19q18 0 56 -23t60 -23q44 0 88 45l12 -12q-90 -90 -129 -90q-17 0 -55 23q-37 24 -62 24q-39 0 -82 -43z"/>
<glyph horiz-adv-x="769" glyph-name="Odieresis" unicode="Ö" d="M48 350q0 161 93 259q93 97 244 97q150 0 243 -97q94 -97 94 -259q0 -163 -94 -260q-93 -96 -243 -96q-151 0 -244 96q-93 98 -93 260zM161 349q0 -162 60.5 -251t163.5 -89t163 89t60 251q0 163 -60 252.5t-163 89.5t-163.5 -89.5t-60.5 -252.5zM208 804q0 27 18.5 45.5 t45.5 18.5q28 0 46.5 -18.5t18.5 -45.5q0 -28 -18.5 -46.5t-46.5 -18.5q-27 0 -45.5 18.5t-18.5 46.5zM432 804q0 27 18.5 45.5t46.5 18.5q27 0 45.5 -18.5t18.5 -45.5q0 -28 -18.5 -46.5t-45.5 -18.5q-28 0 -46.5 18.5t-18.5 46.5z"/>
<glyph horiz-adv-x="453" glyph-name="multiply" unicode="×" d="M205 300l-153 153l22 21l152 -153l153 153l22 -21l-153 -153l153 -153l-22 -21l-153 153l-152 -153l-22 21z"/>
<glyph horiz-adv-x="769" glyph-name="Oslash" unicode="Ø" d="M154 78l-71 -78h-35l87 96q-87 96 -87 254q0 161 93 259q93 97 244 97q138 0 230 -84l71 78h36l-88 -97q88 -95 88 -253q0 -163 -94 -260q-93 -96 -243 -96q-141 0 -231 84zM608 349q0 113 -31 193l-375 -411q60 -122 183 -122q103 0 163 89t60 251zM161 349 q0 -111 30 -192l375 411q-62 123 -181 123q-103 0 -163.5 -89.5t-60.5 -252.5z"/>
<glyph horiz-adv-x="719" glyph-name="Ugrave" unicode="Ù" d="M699 691l-65 -18v-413q0 -123 -76 -195q-76 -71 -198 -71q-124 0 -200 72t-76 194v411l-65 19v10h238v-10l-65 -19v-411q0 -106 57 -166.5t151 -60.5q96 0 154 61q60 61 60 166v413l-65 18v9h150v-9zM255 827l57 57l138 -141l-10 -11z"/>
<glyph horiz-adv-x="719" glyph-name="Uacute" unicode="Ú" d="M699 691l-65 -18v-413q0 -123 -76 -195q-76 -71 -198 -71q-124 0 -200 72t-76 194v411l-65 19v10h238v-10l-65 -19v-411q0 -106 57 -166.5t151 -60.5q96 0 154 61q60 61 60 166v413l-65 18v9h150v-9zM306 732l-10 11l138 141l57 -57z"/>
<glyph horiz-adv-x="719" glyph-name="Ucircumflex" unicode="Û" d="M699 691l-65 -18v-413q0 -123 -76 -195q-76 -71 -198 -71q-124 0 -200 72t-76 194v411l-65 19v10h238v-10l-65 -19v-411q0 -106 57 -166.5t151 -60.5q96 0 154 61q60 61 60 166v413l-65 18v9h150v-9zM231 743l134 141h16l134 -141l-10 -11l-132 78l-132 -78z"/>
<glyph horiz-adv-x="719" glyph-name="Udieresis" unicode="Ü" d="M699 691l-65 -18v-413q0 -123 -76 -195q-76 -71 -198 -71q-124 0 -200 72t-76 194v411l-65 19v10h238v-10l-65 -19v-411q0 -106 57 -166.5t151 -60.5q96 0 154 61q60 61 60 166v413l-65 18v9h150v-9zM197 804q0 27 18 45.5t46 18.5t46 -18.5t18 -45.5q0 -28 -18 -46.5 t-46 -18.5t-46 18.5t-18 46.5zM421 804q0 27 18.5 45.5t45.5 18.5q28 0 46.5 -18.5t18.5 -45.5q0 -28 -18.5 -46.5t-46.5 -18.5q-27 0 -45.5 18.5t-18.5 46.5z"/>
<glyph horiz-adv-x="724" glyph-name="Yacute" unicode="Ý" d="M249 690l-66 -19l218 -345l221 345l-84 19v10h178v-10l-71 -19l-234 -367v-275l62 -19v-10h-234v10l65 19v275l-234 367l-62 19v10h241v-10zM297 732l-10 11l138 141l57 -57z"/>
<glyph horiz-adv-x="616" glyph-name="Thorn" unicode="Þ" d="M253 690l-61 -19v-111h109q121 0 194 -54q74 -53 74 -145q0 -91 -74 -145q-74 -53 -194 -53h-81l-13 14v6h81q79 0 125 46.5t46 131.5q0 86 -46 132.5t-125 46.5h-96v-511l100 -19v-10h-273v10l65 19v642l-65 19v10h234v-10z"/>
<glyph horiz-adv-x="643" glyph-name="germandbls" unicode="ß" d="M287 9l-10 10v109h20q22 -118 125 -118q50 0 80 27t30 72q0 38 -24 59t-88 43q-48 16 -82 36q-31 18 -45.5 45t-16.5 74q0 39 13 69.5t31 50t36.5 37t31.5 40t13 49.5q0 44 -29.5 70.5t-82.5 26.5q-56 0 -81 -32.5t-25 -102.5v-545l60 -19v-10h-224v10l60 19v451h-60v8 l60 19v67q0 150 191 150q169 0 169 -115q0 -57 -47 -102q-46 -46 -46 -99q0 -38 22 -58.5t76 -39.5q64 -23 104 -53q54 -41 54 -117q0 -68 -43.5 -106.5t-128.5 -38.5q-73 0 -122 31z"/>
<glyph horiz-adv-x="546" glyph-name="agrave" unicode="à" d="M366 60l-3 3q-73 -69 -179 -69q-67 0 -101 30.5t-34 85.5q0 79 79 113q54 23 219 50l1 1h1h1h1h1h1l1 1h1h1h1h1h1l1 1h1h2v94q0 54 -28 85.5t-76 31.5q-39 0 -74 -23v-81q0 -30 -17 -48t-44 -18t-43.5 17t-16.5 46q0 56 58 89q58 34 139 34q95 0 150.5 -42t55.5 -110 v-305q0 -25 24 -25q22 0 33 11l7 -7q-27 -27 -91 -27q-66 0 -74 62zM363 86v175h-1h-1h-1l-1 -1h-1h-1h-1h-1h-1q-116 -18 -149 -36q-50 -27 -50 -101q0 -45 22 -69.5t61 -24.5q71 0 125 57zM143 646l57 58l139 -141l-11 -11z"/>
<glyph horiz-adv-x="546" glyph-name="aacute" unicode="á" d="M366 60l-3 3q-73 -69 -179 -69q-67 0 -101 30.5t-34 85.5q0 79 79 113q54 23 219 50l1 1h1h1h1h1h1l1 1h1h1h1h1h1l1 1h1h2v94q0 54 -28 85.5t-76 31.5q-39 0 -74 -23v-81q0 -30 -17 -48t-44 -18t-43.5 17t-16.5 46q0 56 58 89q58 34 139 34q95 0 150.5 -42t55.5 -110 v-305q0 -25 24 -25q22 0 33 11l7 -7q-27 -27 -91 -27q-66 0 -74 62zM363 86v175h-1h-1h-1l-1 -1h-1h-1h-1h-1h-1q-116 -18 -149 -36q-50 -27 -50 -101q0 -45 22 -69.5t61 -24.5q71 0 125 57zM194 552l-11 11l139 141l57 -58z"/>
<glyph horiz-adv-x="546" glyph-name="acircumflex" unicode="â" d="M366 60l-3 3q-73 -69 -179 -69q-67 0 -101 30.5t-34 85.5q0 79 79 113q54 23 219 50l1 1h1h1h1h1h1l1 1h1h1h1h1h1l1 1h1h2v94q0 54 -28 85.5t-76 31.5q-39 0 -74 -23v-81q0 -30 -17 -48t-44 -18t-43.5 17t-16.5 46q0 56 58 89q58 34 139 34q95 0 150.5 -42t55.5 -110 v-305q0 -25 24 -25q22 0 33 11l7 -7q-27 -27 -91 -27q-66 0 -74 62zM363 86v175h-1h-1h-1l-1 -1h-1h-1h-1h-1h-1q-116 -18 -149 -36q-50 -27 -50 -101q0 -45 22 -69.5t61 -24.5q71 0 125 57zM118 563l135 141h15l135 -141l-11 -11l-132 77l-131 -77z"/>
<glyph horiz-adv-x="546" glyph-name="atilde" unicode="ã" d="M366 60l-3 3q-73 -69 -179 -69q-67 0 -101 30.5t-34 85.5q0 79 79 113q54 23 219 50l1 1h1h1h1h1h1l1 1h1h1h1h1h1l1 1h1h2v94q0 54 -28 85.5t-76 31.5q-39 0 -74 -23v-81q0 -30 -17 -48t-44 -18t-43.5 17t-16.5 46q0 56 58 89q58 34 139 34q95 0 150.5 -42t55.5 -110 v-305q0 -25 24 -25q22 0 33 11l7 -7q-27 -27 -91 -27q-66 0 -74 62zM363 86v175h-1h-1h-1l-1 -1h-1h-1h-1h-1h-1q-116 -18 -149 -36q-50 -27 -50 -101q0 -45 22 -69.5t61 -24.5q71 0 125 57zM104 577l-12 12q85 87 124 87q18 0 56 -23t60 -23q43 0 88 45l12 -12 q-89 -89 -128 -89q-17 0 -57 23q-38 23 -61 23q-39 0 -82 -43z"/>
<glyph horiz-adv-x="546" glyph-name="adieresis" unicode="ä" d="M366 60l-3 3q-73 -69 -179 -69q-67 0 -101 30.5t-34 85.5q0 79 79 113q54 23 219 50l1 1h1h1h1h1h1l1 1h1h1h1h1h1l1 1h1h2v94q0 54 -28 85.5t-76 31.5q-39 0 -74 -23v-81q0 -30 -17 -48t-44 -18t-43.5 17t-16.5 46q0 56 58 89q58 34 139 34q95 0 150.5 -42t55.5 -110 v-305q0 -25 24 -25q22 0 33 11l7 -7q-27 -27 -91 -27q-66 0 -74 62zM363 86v175h-1h-1h-1l-1 -1h-1h-1h-1h-1h-1q-116 -18 -149 -36q-50 -27 -50 -101q0 -45 22 -69.5t61 -24.5q71 0 125 57zM153 687q27 0 45.5 -18t18.5 -46t-18.5 -46t-45.5 -18q-28 0 -46.5 18t-18.5 46 t18.5 46t46.5 18zM331 577q-18 18 -18 46t18 46t46 18t46 -18t18 -46t-18 -46t-46 -18t-46 18z"/>
<glyph horiz-adv-x="546" glyph-name="aring" unicode="å" d="M366 60l-3 3q-73 -69 -179 -69q-67 0 -101 30.5t-34 85.5q0 79 79 113q54 23 219 50l1 1h1h1h1h1h1l1 1h1h1h1h1h1l1 1h1h2v94q0 54 -28 85.5t-76 31.5q-39 0 -74 -23v-81q0 -30 -17 -48t-44 -18t-43.5 17t-16.5 46q0 56 58 89q58 34 139 34q95 0 150.5 -42t55.5 -110 v-305q0 -25 24 -25q22 0 33 11l7 -7q-27 -27 -91 -27q-66 0 -74 62zM363 86v175h-1h-1h-1l-1 -1h-1h-1h-1h-1h-1q-116 -18 -149 -36q-50 -27 -50 -101q0 -45 22 -69.5t61 -24.5q71 0 125 57zM177 628q0 36 23 58t60 22q38 0 61.5 -22t23.5 -58q0 -38 -23 -60t-62 -22 q-37 0 -60 22t-23 60zM228 672q-12 -16 -12 -44t12 -45t32 -17t32 17q13 17 13 45t-13 44q-12 17 -32 17t-32 -17z"/>
<glyph horiz-adv-x="826" glyph-name="ae" unicode="æ" d="M363 63q-73 -69 -180 -69q-66 0 -100 28.5t-34 81.5q3 38 16 60.5t45 37.5q47 23 103 35q35 8 68 13l82 14v106q0 54 -28 85.5t-76 31.5q-39 0 -74 -23v-81q0 -30 -17 -48t-44 -18t-43.5 17t-16.5 46q0 56 58 89q58 34 138 34q93 0 146 -50q63 51 152 51q97 0 161 -56 q63 -56 63 -145q0 -22 -5 -40l-14 -13h-305v-154q46 -70 149 -70q89 0 148 59l11 -12q-80 -78 -203 -78q-129 0 -200 68zM363 85v164q-28 -4 -79 -13q-26 -4 -57 -15q-40 -13 -54 -34.5t-18 -68.5q0 -44 21.5 -66.5t61.5 -22.5q71 0 125 56zM458 351v-84l223 13 q0 102 -31 155.5t-88 53.5q-74 0 -114 -85q10 -23 10 -53z"/>
<glyph horiz-adv-x="555" glyph-name="ccedilla" unicode="ç" d="M223 -108l59 103q-118 3 -180.5 70t-62.5 183q0 120 66.5 188t187.5 68q84 0 148 -35q63 -35 63 -94q0 -30 -17 -47t-45 -17t-45 18t-17 48v86q-43 26 -85 26q-69 0 -109 -60.5t-40 -163.5q0 -115 47.5 -177.5t138.5 -62.5q87 0 147 60l11 -12q-75 -75 -189 -78l-26 -47 q125 0 73 -86q-23 -39 -82 -93l-7 9q46 43 46 81q0 19 -17 26t-65 7z"/>
<glyph horiz-adv-x="558" glyph-name="egrave" unicode="è" d="M509 263l-14 -13h-349q0 -108 49.5 -166t144.5 -58q88 0 147 59l11 -12q-78 -78 -201 -78t-190.5 67.5t-67.5 181.5q0 119 70 189q71 71 181 71q97 0 161 -56q63 -56 63 -145q0 -22 -5 -40zM294 489q-62 0 -103.5 -59.5t-44.5 -164.5l266 15q0 102 -30.5 155.5 t-87.5 53.5zM173 646l57 58l138 -141l-10 -11z"/>
<glyph horiz-adv-x="558" glyph-name="eacute" unicode="é" d="M509 263l-14 -13h-349q0 -108 49.5 -166t144.5 -58q88 0 147 59l11 -12q-78 -78 -201 -78t-190.5 67.5t-67.5 181.5q0 119 70 189q71 71 181 71q97 0 161 -56q63 -56 63 -145q0 -22 -5 -40zM294 489q-62 0 -103.5 -59.5t-44.5 -164.5l266 15q0 102 -30.5 155.5 t-87.5 53.5zM223 552l-11 11l139 141l57 -58z"/>
<glyph horiz-adv-x="558" glyph-name="ecircumflex" unicode="ê" d="M509 263l-14 -13h-349q0 -108 49.5 -166t144.5 -58q88 0 147 59l11 -12q-78 -78 -201 -78t-190.5 67.5t-67.5 181.5q0 119 70 189q71 71 181 71q97 0 161 -56q63 -56 63 -145q0 -22 -5 -40zM294 489q-62 0 -103.5 -59.5t-44.5 -164.5l266 15q0 102 -30.5 155.5 t-87.5 53.5zM147 563l134 141h15l135 -141l-10 -11l-132 77l-132 -77z"/>
<glyph horiz-adv-x="558" glyph-name="edieresis" unicode="ë" d="M509 263l-14 -13h-349q0 -108 49.5 -166t144.5 -58q88 0 147 59l11 -12q-78 -78 -201 -78t-190.5 67.5t-67.5 181.5q0 119 70 189q71 71 181 71q97 0 161 -56q63 -56 63 -145q0 -22 -5 -40zM294 489q-62 0 -103.5 -59.5t-44.5 -164.5l266 15q0 102 -30.5 155.5 t-87.5 53.5zM130 577q-18 18 -18 46t18 46t46 18t46 -18t18 -46t-18 -46t-46 -18t-46 18zM400 687q28 0 46.5 -18t18.5 -46t-18.5 -46t-46.5 -18q-27 0 -45.5 18t-18.5 46t18.5 46t45.5 18z"/>
<glyph glyph-name="igrave" unicode="ì" d="M243 0h-224v10l60 19v438l-60 13v11l151 16l13 -14v-464l60 -19v-10zM14 646l57 58l138 -141l-10 -11z"/>
<glyph glyph-name="iacute" unicode="í" d="M243 0h-224v10l60 19v438l-60 13v11l151 16l13 -14v-464l60 -19v-10zM64 552l-10 11l138 141l57 -58z"/>
<glyph glyph-name="icircumflex" unicode="î" d="M243 0h-224v10l60 19v438l-60 13v11l151 16l13 -14v-464l60 -19v-10zM-11 563l134 141h16l134 -141l-10 -11l-132 77l-132 -77z"/>
<glyph glyph-name="idieresis" unicode="ï" d="M243 0h-224v10l60 19v438l-60 13v11l151 16l13 -14v-464l60 -19v-10zM44 687q27 0 45.5 -18t18.5 -46t-18.5 -46t-45.5 -18q-28 0 -46 18t-18 46t18 46t46 18zM208 687q28 0 46.5 -18t18.5 -46t-18.5 -46t-46.5 -18q-27 0 -45.5 18t-18.5 46t18.5 46t45.5 18z"/>
<glyph horiz-adv-x="585" glyph-name="eth" unicode="ð" d="M309 549l-22 22l61 61q-103 66 -230 78l17 17q162 -21 243 -65l66 66l22 -22l-61 -61q140 -98 140 -327q0 -160 -64.5 -241.5t-185.5 -81.5q-114 0 -184 68q-68 70 -68 184q0 116 68 187q69 70 180 70q66 0 116.5 -27t74.5 -74h4q0 129 -111 212zM291 489 q-65 0 -103.5 -63t-38.5 -177t38 -176.5t104 -62.5q67 0 105.5 63t38.5 176t-39 176.5t-105 63.5z"/>
<glyph horiz-adv-x="610" glyph-name="ntilde" unicode="ñ" d="M183 407v-378l53 -19v-10h-217v10l60 19v438l-60 13v11l151 16l13 -14l-3 -61l3 -3q36 35 90 55t106 20q76 0 114 -44.5t38 -127.5v-303l60 -19v-10h-217v10l53 19v286q0 72 -25.5 113t-77.5 41q-37 0 -76 -17t-65 -45zM149 577l-12 12q48 48 75.5 67.5t48.5 19.5 q18 0 56 -23t60 -23q41 0 88 45l12 -12q-89 -89 -129 -89q-18 0 -56 23t-61 23q-39 0 -82 -43z"/>
<glyph horiz-adv-x="583" glyph-name="ograve" unicode="ò" d="M292 504q112 0 182 -70t70 -185q0 -116 -70 -185q-69 -69 -182 -69q-112 0 -183 69q-70 69 -70 185t70 185q70 70 183 70zM146 249q0 -113 39.5 -176t106.5 -63q68 0 107 63t39 176q0 115 -39 177.5t-107 62.5q-67 0 -106.5 -63t-39.5 -177zM174 646l56 58l139 -141 l-11 -11z"/>
<glyph horiz-adv-x="583" glyph-name="oacute" unicode="ó" d="M292 504q112 0 182 -70t70 -185q0 -116 -70 -185q-69 -69 -182 -69q-112 0 -183 69q-70 69 -70 185t70 185q70 70 183 70zM146 249q0 -113 39.5 -176t106.5 -63q68 0 107 63t39 176q0 115 -39 177.5t-107 62.5q-67 0 -106.5 -63t-39.5 -177zM224 552l-10 11l138 141 l57 -58z"/>
<glyph horiz-adv-x="583" glyph-name="ocircumflex" unicode="ô" d="M292 504q112 0 182 -70t70 -185q0 -116 -70 -185q-69 -69 -182 -69q-112 0 -183 69q-70 69 -70 185t70 185q70 70 183 70zM146 249q0 -113 39.5 -176t106.5 -63q68 0 107 63t39 176q0 115 -39 177.5t-107 62.5q-67 0 -106.5 -63t-39.5 -177zM149 563l135 141h15l135 -141 l-11 -11l-132 77l-131 -77z"/>
<glyph horiz-adv-x="583" glyph-name="otilde" unicode="õ" d="M292 504q112 0 182 -70t70 -185q0 -116 -70 -185q-69 -69 -182 -69q-112 0 -183 69q-70 69 -70 185t70 185q70 70 183 70zM146 249q0 -113 39.5 -176t106.5 -63q68 0 107 63t39 176q0 115 -39 177.5t-107 62.5q-67 0 -106.5 -63t-39.5 -177zM135 577l-12 12q85 87 124 87 q18 0 56 -23t60 -23q43 0 88 45l12 -12q-89 -89 -128 -89q-17 0 -57 23q-38 23 -61 23q-39 0 -82 -43z"/>
<glyph horiz-adv-x="583" glyph-name="odieresis" unicode="ö" d="M292 504q112 0 182 -70t70 -185q0 -116 -70 -185q-69 -69 -182 -69q-112 0 -183 69q-70 69 -70 185t70 185q70 70 183 70zM146 249q0 -113 39.5 -176t106.5 -63q68 0 107 63t39 176q0 115 -39 177.5t-107 62.5q-67 0 -106.5 -63t-39.5 -177zM180 687q27 0 45.5 -18 t18.5 -46t-18.5 -46t-45.5 -18q-28 0 -46.5 18t-18.5 46t18.5 46t46.5 18zM358 577q-18 18 -18 46t18 46t46 18t46 -18t18 -46t-18 -46t-46 -18t-46 18z"/>
<glyph horiz-adv-x="453" glyph-name="divide" unicode="÷" d="M415 291h-377v31h377v-31zM171 164q0 24 16 40t39 16t39 -16t16 -40q0 -23 -16 -39t-39 -16t-39 16t-16 39zM171 448q0 24 16 40t39 16t39 -16t16 -40q0 -23 -16 -39t-39 -16t-39 16t-16 39z"/>
<glyph horiz-adv-x="583" glyph-name="oslash" unicode="ø" d="M124 50l-46 -50h-39l64 69q-64 67 -64 180q0 116 70 185q70 70 183 70q99 0 166 -55l48 51h38l-66 -70q66 -69 66 -181q0 -116 -70 -185q-69 -69 -182 -69q-103 0 -168 55zM438 249q0 71 -15 121l-252 -270q37 -90 121 -90q68 0 107 63t39 176zM146 249q0 -69 15 -119 l251 269q-38 90 -120 90q-67 0 -106.5 -63t-39.5 -177z"/>
<glyph horiz-adv-x="607" glyph-name="ugrave" unicode="ù" d="M528 493v-460l60 -13v-11l-151 -12l-13 13l3 57l-3 3q-35 -36 -85 -55.5t-102 -19.5q-76 0 -117 42.5t-41 115.5v314l-60 13v11l151 16l13 -14v-323q0 -141 104 -141q80 0 137 63v375l-60 13v11l150 16zM180 646l57 58l139 -141l-11 -11z"/>
<glyph horiz-adv-x="607" glyph-name="uacute" unicode="ú" d="M528 493v-460l60 -13v-11l-151 -12l-13 13l3 57l-3 3q-35 -36 -85 -55.5t-102 -19.5q-76 0 -117 42.5t-41 115.5v314l-60 13v11l151 16l13 -14v-323q0 -141 104 -141q80 0 137 63v375l-60 13v11l150 16zM229 552l-10 11l138 141l57 -58z"/>
<glyph horiz-adv-x="607" glyph-name="ucircumflex" unicode="û" d="M528 493v-460l60 -13v-11l-151 -12l-13 13l3 57l-3 3q-35 -36 -85 -55.5t-102 -19.5q-76 0 -117 42.5t-41 115.5v314l-60 13v11l151 16l13 -14v-323q0 -141 104 -141q80 0 137 63v375l-60 13v11l150 16zM156 563l135 141h15l134 -141l-10 -11l-132 77l-132 -77z"/>
<glyph horiz-adv-x="607" glyph-name="udieresis" unicode="ü" d="M528 493v-460l60 -13v-11l-151 -12l-13 13l3 57l-3 3q-35 -36 -85 -55.5t-102 -19.5q-76 0 -117 42.5t-41 115.5v314l-60 13v11l151 16l13 -14v-323q0 -141 104 -141q80 0 137 63v375l-60 13v11l150 16zM137 577q-18 18 -18 46t18 46t46 18t46 -18t18 -46t-18 -46 t-46 -18t-46 18zM407 687q28 0 46.5 -18t18.5 -46t-18.5 -46t-46.5 -18q-27 0 -45.5 18t-18.5 46t18.5 46t45.5 18z"/>
<glyph horiz-adv-x="601" glyph-name="yacute" unicode="ý" d="M288 -9l-218 480l-59 19v10h228v-10l-61 -19l164 -363l162 363l-83 19v10h169v-10l-64 -19l-212 -471q-49 -108 -86 -156q-34 -46 -83 -46q-36 0 -62 18.5t-26 54.5q0 26 13.5 40.5t37.5 14.5t39 -15t15 -40v-40q6 -3 11 -3q26 0 51.5 38.5t63.5 124.5zM251 552l-11 11 l139 141l57 -58z"/>
<glyph horiz-adv-x="582" glyph-name="thorn" unicode="þ" d="M273 -200h-254v10l60 19v857l-60 13v12l151 15l13 -13v-213l-3 -62l3 -3q66 69 164 69q95 0 145.5 -65t50.5 -178q0 -126 -64 -196t-179 -70q-68 0 -117 27v-193l90 -19v-10zM183 413v-376q51 -27 98 -27q75 0 115.5 61.5t40.5 173.5q0 100 -38 162t-102 62 q-67 0 -114 -56z"/>
<glyph horiz-adv-x="619" glyph-name="uni0400" unicode="Ѐ" d="M192 351v-331h312l47 102h16v-122h-548v8l65 16v652l-65 15v9h538v-123h-16l-47 103h-302v-308h244l21 78h15v-177h-15l-21 78h-244zM192 827l56 57l139 -141l-11 -11z"/>
<glyph horiz-adv-x="619" glyph-name="afii10023" unicode="Ё" d="M192 351v-331h312l47 102h16v-122h-548v8l65 16v652l-65 15v9h538v-123h-16l-47 103h-302v-308h244l21 78h15v-177h-15l-21 78h-244zM197 887q28 0 46.5 -18t18.5 -46t-18.5 -46t-46.5 -18q-27 0 -45.5 18t-18.5 46t18.5 46t45.5 18zM422 887q27 0 45.5 -18t18.5 -46 t-18.5 -46t-45.5 -18q-28 0 -46 18t-18 46t18 46t46 18z"/>
<glyph horiz-adv-x="809" glyph-name="afii10051" unicode="Ђ" d="M601 -108v-43q60 0 60 199v184q0 156 -116 156q-40 0 -83 -17t-72 -45v-297l61 -19v-10h-234v10l65 19v651h-188l-46 -103h-17v123h610v-123h-16l-47 103h-188v-268l-3 -61l3 -3q46 37 104 55q63 20 116 20q79 0 118.5 -45t39.5 -127v-203q0 -107 -46 -164t-131 -57 q-49 0 -74.5 18.5t-25.5 49.5q0 25 15.5 40.5t39.5 15.5t39.5 -16.5t15.5 -42.5z"/>
<glyph horiz-adv-x="573" glyph-name="afii10052" unicode="Ѓ" d="M224 732l-11 11l139 141l56 -57zM471 680h-279v-651l95 -19v-10h-268v10l65 19v647l-65 15v9h515v-123h-17z"/>
<glyph horiz-adv-x="704" glyph-name="afii10053" unicode="Є" d="M641 107l11 -11q-100 -102 -259 -102q-157 0 -252 96q-93 96 -93 260q0 163 93 259q93 97 248 97q129 0 208 -60l42 25l10 -10v-138h-17q-10 48 -35 82.5t-60 49.5q-59 28 -123 28q-120 0 -184 -80.5t-69 -235.5h363v-20h-363q1 -153 69.5 -237t198.5 -84q133 0 212 81z "/>
<glyph horiz-adv-x="585" glyph-name="afii10054" unicode="Ѕ" d="M65 11l-10 10v142h18q23 -93 90 -127q55 -27 116 -27q83 0 130 40t47 112q0 68 -48 96q-27 18 -51 26q-28 10 -76 24l-38 11q-9 4 -35 12q-24 8 -67 29q-23 12 -51 43q-33 39 -33 106q0 90 59.5 144t170.5 54q95 0 168 -47l42 29l10 -10v-142h-18q-20 94 -83 126 q-51 29 -104 29q-72 0 -116 -39t-44 -102q0 -47 28 -77q10 -11 37 -24q22 -10 43 -18l56 -18q47 -14 71 -24q31 -11 61 -28q51 -25 75 -63.5t28 -100.5q0 -93 -64.5 -148t-187.5 -55q-104 0 -181 47z"/>
<glyph horiz-adv-x="276" glyph-name="afii10055" unicode="І" d="M253 690l-62 -19v-642l62 -19v-10h-233v10l65 19v642l-65 19v10h233v-10z"/>
<glyph horiz-adv-x="276" glyph-name="afii10056" unicode="Ї" d="M253 690l-62 -19v-642l62 -19v-10h-233v10l65 19v642l-65 19v10h233v-10zM-17 804q0 27 18 45.5t46 18.5t46 -18.5t18 -45.5q0 -28 -18 -46.5t-46 -18.5t-46 18.5t-18 46.5zM165 804q0 27 18 45.5t46 18.5t46 -18.5t18 -45.5q0 -28 -18 -46.5t-46 -18.5t-46 18.5 t-18 46.5z"/>
<glyph horiz-adv-x="276" glyph-name="afii10057" unicode="Ј" d="M85 16v655l-65 19v10h232v-10l-61 -19v-655q0 -71 -38.5 -123t-118.5 -98l-11 11q62 89 62 210z"/>
<glyph horiz-adv-x="1088" glyph-name="afii10058" unicode="Љ" d="M203 149l57 527l-65 15v9h513v-9l-65 -15v-289h133q118 0 191 -52t73 -141q0 -90 -73 -142q-71 -52 -191 -52h-305v8l65 16v656h-256l-56 -528q-8 -81 -33.5 -119t-71.5 -38q-38 0 -64 19.5t-26 56.5q0 29 16 45.5t43 16.5t43.5 -17t16.5 -47v-34q8 -2 9 -2q15 0 27.5 31 t18.5 85zM643 366v-346h113q80 0 127 45.5t47 128.5t-47 127.5t-127 44.5h-113z"/>
<glyph horiz-adv-x="1084" glyph-name="afii10059" unicode="Њ" d="M19 0v10l65 19v642l-65 19v10h238v-10l-65 -19v-294h341v294l-65 19v10h237v-10l-65 -19v-294h133q119 0 191 -51q73 -49 73 -137q0 -87 -73 -138q-72 -51 -191 -51h-305v8l65 16v332h-341v-327l65 -19v-10h-238zM640 356v-336h112q80 0 127.5 44.5t47.5 124.5 t-47.5 123.5t-127.5 43.5h-112z"/>
<glyph horiz-adv-x="852" glyph-name="afii10060" unicode="Ћ" d="M390 326v-297l61 -19v-10h-234v10l65 19v651h-188l-46 -103h-17v123h610v-123h-16l-47 103h-188v-268l-3 -61l3 -3q46 37 104 55q63 20 116 20q79 0 118.5 -45t39.5 -128v-221l65 -19v-10h-239v10l67 19v205q0 154 -116 154q-40 0 -83 -17t-72 -45z"/>
<glyph horiz-adv-x="689" glyph-name="afii10061" unicode="Ќ" d="M659 38l8 -8q-35 -36 -97 -36q-56 0 -86.5 33.5t-48.5 108.5l-21 94q-15 63 -49 91.5t-101 28.5h-76v-321l65 -19v-10h-238v10l65 19v642l-65 19v10h238v-10l-65 -19v-302q131 0 166 122l20 72q19 74 49.5 108.5t86.5 34.5q44 0 70 -19.5t26 -56.5q0 -29 -16 -45.5 t-43 -16.5q-28 0 -44 17.5t-16 46.5v39q-7 4 -17 4q-46 0 -75 -111l-19 -73q-26 -93 -96 -123h19q100 0 150.5 -30.5t67.5 -102.5l22 -91q16 -68 31.5 -94.5t45.5 -26.5q20 0 43 15zM280 732l-10 11l138 141l57 -57z"/>
<glyph horiz-adv-x="745" glyph-name="uni040D" unicode="Ѝ" d="M255 827l56 57l139 -141l-11 -11zM19 0v10l65 19v642l-65 19v10h238v-10l-65 -19v-573l361 558v15l-65 19v10h237v-10l-65 -19v-642l65 -19v-10h-237v10l65 19v576l-361 -558v-18l65 -19v-10h-238z"/>
<glyph horiz-adv-x="700" glyph-name="afii10062" unicode="Ў" d="M421 767v61q0 25 15 40t38 15t37 -14.5t14 -36.5q0 -44 -52 -68q-51 -24 -112 -24q-59 0 -112 24q-51 24 -51 68q0 22 14 36.5t37 14.5t37.5 -15t14.5 -40v-61q31 -12 60 -12q30 0 60 12zM331 185l-252 486l-65 19v10h241v-10l-65 -19l199 -384l207 384l-88 19v10h178 v-10l-68 -19l-260 -480q-58 -108 -99 -153q-41 -44 -99 -44q-44 0 -73.5 19t-29.5 58q0 29 16.5 46t43.5 17q26 0 42.5 -16.5t16.5 -42.5v-49q6 -3 13 -3q59 0 142 162z"/>
<glyph horiz-adv-x="737" glyph-name="afii10145" unicode="Џ" d="M358 -152l-22 152h-317v8l65 16v647l-65 19v10h238v-10l-65 -19v-651h354v651l-65 19v10h237v-10l-65 -19v-647l65 -16v-8h-314l-22 -152h-24z"/>
<glyph horiz-adv-x="755" glyph-name="afii10017" unicode="А" d="M369 700h33l281 -671l64 -19v-10h-241v10l66 19l-84 203h-302l-88 -203l88 -19v-10h-178v10l68 19zM479 253l-138 337l-146 -337h284z"/>
<glyph horiz-adv-x="644" glyph-name="afii10018" unicode="Б" d="M473 680h-281v-283h140q118 0 191 -53q73 -52 73 -145q0 -92 -73 -146q-73 -53 -191 -53h-313v8l65 16v652l-65 15v9h517v-123h-17zM192 377v-357h120q80 0 127 46.5t47 132.5q0 85 -47 131.5t-127 46.5h-120z"/>
<glyph horiz-adv-x="654" glyph-name="afii10019" unicode="В" d="M19 691v9h320q106 0 173 -47q67 -46 67 -127q0 -65 -43 -108.5t-119 -58.5q89 -15 139.5 -61.5t50.5 -115.5q0 -83 -74 -133q-73 -49 -194 -49h-320v8l65 16v652zM192 348v-328h127q82 0 130 43t48 121q0 79 -47.5 121.5t-130.5 42.5h-127zM319 680h-127v-312h127 q69 0 109.5 40.5t40.5 115.5q0 74 -41 115t-109 41z"/>
<glyph horiz-adv-x="573" glyph-name="afii10020" unicode="Г" d="M471 680h-279v-651l95 -19v-10h-268v10l65 19v647l-65 15v9h515v-123h-17z"/>
<glyph horiz-adv-x="713" glyph-name="afii10021" unicode="Д" d="M671 -152l-48 152h-533l-48 -152h-24v172h79q16 6 30.5 41.5t20.5 87.5l57 527l-65 15v9h545v-9l-65 -15v-656h75v-172h-24zM513 680h-283l-56 -528q-10 -101 -43 -132h382v660z"/>
<glyph horiz-adv-x="619" glyph-name="afii10022" unicode="Е" d="M192 351v-331h312l47 102h16v-122h-548v8l65 16v652l-65 15v9h538v-123h-16l-47 103h-302v-308h244l21 78h15v-177h-15l-21 78h-244z"/>
<glyph horiz-adv-x="1059" glyph-name="afii10024" unicode="Ж" d="M192 671v-39q0 -29 -16 -46.5t-44 -17.5q-27 0 -43 16.5t-16 45.5q0 37 26 56.5t69 19.5q54 0 81.5 -33t49.5 -110l20 -72q35 -122 156 -122v302l-65 19v10h238v-10l-65 -19v-302q121 0 156 122l21 72q20 76 48.5 109.5t81.5 33.5q42 0 68.5 -19.5t26.5 -56.5 q0 -29 -16 -45.5t-43 -16.5q-28 0 -44 17.5t-16 46.5v39q-7 4 -15 4q-41 0 -71 -111l-20 -73q-27 -95 -90 -123h20q100 0 148.5 -33t65.5 -115l15 -76q12 -65 28.5 -93t44.5 -28q21 0 42 15l8 -8q-34 -36 -94 -36q-55 0 -85.5 34.5t-43.5 107.5l-14 79q-13 72 -46 103.5 t-103 31.5h-73v-321l65 -19v-10h-238v10l65 19v321h-73q-69 0 -101.5 -31t-47.5 -104l-14 -79q-13 -73 -43.5 -107.5t-85.5 -34.5q-59 0 -94 36l8 8q21 -15 42 -15q28 0 44 27.5t29 93.5l16 76q16 81 65 114.5t149 33.5h19q-63 28 -89 123l-20 73q-30 111 -72 111 q-8 0 -15 -4z"/>
<glyph horiz-adv-x="610" glyph-name="afii10025" unicode="З" d="M79 540h-17v134l10 10l42 -22q70 44 182 44q107 0 172 -49q66 -48 66 -131q0 -65 -42 -108.5t-118 -58.5q87 -14 137.5 -61t50.5 -116q0 -87 -73 -138q-74 -50 -192 -50q-120 0 -193 46l-42 -23l-10 10v135h17q19 -87 89 -119q57 -25 113 -25q85 0 133 43t48 123t-50 122 t-138 42q-41 0 -86 -3v27q36 -4 86 -4q75 0 117.5 40t42.5 116q0 77 -41 118t-112 41q-52 0 -104 -24q-32 -13 -55.5 -44.5t-32.5 -74.5z"/>
<glyph horiz-adv-x="745" glyph-name="afii10026" unicode="И" d="M19 0v10l65 19v642l-65 19v10h238v-10l-65 -19v-573l361 558v15l-65 19v10h237v-10l-65 -19v-642l65 -19v-10h-237v10l65 19v576l-361 -558v-18l65 -19v-10h-238z"/>
<glyph horiz-adv-x="745" glyph-name="afii10027" unicode="Й" d="M432 787v60q0 25 14.5 40t37.5 15q24 0 38 -14.5t14 -36.5q0 -44 -52 -68t-112 -24q-58 -3 -110.5 23t-53.5 70q-3 34 32 46q35 11 58 -11q16 -15 14 -40v-60q60 -26 120 0zM19 0v10l65 19v642l-65 19v10h238v-10l-65 -19v-573l361 558v15l-65 19v10h237v-10l-65 -19 v-642l65 -19v-10h-237v10l65 19v576l-361 -558v-18l65 -19v-10h-238z"/>
<glyph horiz-adv-x="684" glyph-name="afii10028" unicode="К" d="M659 38l8 -8q-35 -36 -97 -36q-56 0 -86.5 33.5t-48.5 108.5l-21 94q-15 63 -49 91.5t-101 28.5h-76v-321l65 -19v-10h-238v10l65 19v642l-65 19v10h238v-10l-65 -19v-302q131 0 166 122l20 72q19 74 49.5 108.5t86.5 34.5q44 0 70 -19.5t26 -56.5q0 -29 -16 -45.5 t-43 -16.5q-28 0 -44 17.5t-16 46.5v39q-7 4 -17 4q-46 0 -75 -111l-19 -73q-26 -93 -96 -123h19q100 0 150.5 -30.5t67.5 -102.5l22 -91q16 -68 31.5 -94.5t45.5 -26.5q20 0 43 15z"/>
<glyph horiz-adv-x="743" glyph-name="afii10029" unicode="Л" d="M203 149l57 527l-65 15v9h528v-9l-65 -15v-647l65 -19v-10h-237v10l65 19v651h-266l-56 -528q-16 -157 -110 -157q-38 0 -64 19.5t-26 56.5q0 29 16 45.5t43 16.5t43.5 -17t16.5 -47v-34q8 -2 9 -2q15 0 27.5 31t18.5 85z"/>
<glyph horiz-adv-x="920" glyph-name="afii10030" unicode="М" d="M859 690l-62 -19l46 -642l62 -19v-10h-234v10l65 19l-42 579l-257 -608h-33l-261 609l-43 -582l61 -19v-8h-147v8l65 19l47 644l-65 19v10h153l250 -590l248 590h147v-10z"/>
<glyph horiz-adv-x="745" glyph-name="afii10031" unicode="Н" d="M19 0v10l65 19v642l-65 19v10h238v-10l-65 -19v-304h362v304l-65 19v10h237v-10l-65 -19v-642l65 -19v-10h-237v10l65 19v317h-362v-317l65 -19v-10h-238z"/>
<glyph horiz-adv-x="769" glyph-name="afii10032" unicode="О" d="M48 350q0 161 93 259q93 97 244 97q150 0 243 -97q94 -97 94 -259q0 -163 -94 -260q-93 -96 -243 -96q-151 0 -244 96q-93 98 -93 260zM161 349q0 -162 60.5 -251t163.5 -89t163 89t60 251q0 163 -60 252.5t-163 89.5t-163.5 -89.5t-60.5 -252.5z"/>
<glyph horiz-adv-x="737" glyph-name="afii10033" unicode="П" d="M19 0v10l65 19v647l-65 15v9h699v-9l-65 -15v-647l65 -19v-10h-237v10l65 19v651h-354v-651l65 -19v-10h-238z"/>
<glyph horiz-adv-x="626" glyph-name="afii10034" unicode="Р" d="M288 680h-96v-651l100 -19v-10h-273v10l65 19v647l-65 15v9h282q121 0 194 -54q74 -54 74 -146t-74 -146q-73 -54 -194 -54h-81l-13 13v7h81q79 0 125 47t46 133t-46 133t-125 47z"/>
<glyph horiz-adv-x="704" glyph-name="afii10035" unicode="С" d="M641 107l11 -12q-99 -101 -259 -101q-157 0 -252 96q-93 96 -93 260q0 163 93 259q93 97 248 97q129 0 208 -60l42 25l10 -10v-138h-17q-20 98 -99 132q-63 28 -124 28q-118 0 -183 -85t-65 -244q0 -155 69 -241.5t200 -86.5q132 0 211 81z"/>
<glyph horiz-adv-x="672" glyph-name="afii10036" unicode="Т" d="M630 577l-46 103h-187v-651l65 -19v-10h-238v10l65 19v651h-186l-47 -103h-16v123h607v-123h-17z"/>
<glyph horiz-adv-x="700" glyph-name="afii10037" unicode="У" d="M331 185l-252 486l-65 19v10h241v-10l-65 -19l199 -384l207 384l-88 19v10h178v-10l-68 -19l-260 -480q-58 -108 -99 -153q-41 -44 -99 -44q-44 0 -73.5 19t-29.5 58q0 29 16.5 46t43.5 17q26 0 42.5 -16.5t16.5 -42.5v-49q6 -3 13 -3q59 0 142 162z"/>
<glyph horiz-adv-x="873" glyph-name="afii10038" unicode="Ф" d="M552 690l-62 -19v-49q153 0 244 -73q92 -74 92 -199q0 -126 -92 -200q-91 -73 -244 -73v-48l62 -19v-10h-234v10l65 19v48q-153 0 -244 73t-91 200q0 126 91 199t244 73v49l-65 19v10h234v-10zM383 92v515q-104 0 -163 -67t-59 -191t59 -190.5t163 -66.5zM490 607v-515 q104 0 163 66.5t59 190.5t-59 191t-163 67z"/>
<glyph horiz-adv-x="742" glyph-name="afii10039" unicode="Х" d="M487 10l66 19l-218 302l-224 -302l84 -19v-10h-179v10l71 19l235 317l-233 325l-61 19v10h238v-10l-65 -19l199 -280l199 280l-85 19v10h179v-10l-70 -19l-210 -296l251 -346l62 -19v-10h-239v10z"/>
<glyph horiz-adv-x="742" glyph-name="afii10040" unicode="Ц" d="M699 -152l-52 152h-628v8l65 16v647l-65 19v10h238v-10l-65 -19v-651h349v651l-65 19v10h237v-10l-65 -19v-651h75v-172h-24z"/>
<glyph horiz-adv-x="700" glyph-name="afii10041" unicode="Ч" d="M257 690l-65 -19v-178q0 -85 33.5 -128t106.5 -43q102 0 176 44v305l-65 19v10h238v-10l-65 -19v-642l65 -19v-10h-238v10l65 19v317q-43 -27 -106 -42q-64 -14 -116 -14q-101 0 -151.5 49t-50.5 140v192l-65 19v10h238v-10z"/>
<glyph horiz-adv-x="1086" glyph-name="afii10042" unicode="Ш" d="M19 0v8l65 16v647l-65 19v10h238v-10l-65 -19v-651h297v651l-65 19v10h238v-10l-65 -19v-651h297v651l-65 19v10h238v-10l-65 -19v-647l65 -16v-8h-1048z"/>
<glyph horiz-adv-x="1096" glyph-name="afii10043" unicode="Щ" d="M1053 -152l-52 152h-982v8l65 16v647l-65 19v10h238v-10l-65 -19v-651h297v651l-65 19v10h238v-10l-65 -19v-651h297v651l-65 19v10h238v-10l-65 -19v-651h74v-172h-23z"/>
<glyph horiz-adv-x="810" glyph-name="afii10044" unicode="Ъ" d="M431 691l-65 -15v-289h132q118 0 191 -52t73 -141q0 -90 -73 -142q-71 -52 -191 -52h-305v8l65 16v656h-157l-46 -103h-17v123h393v-9zM366 366v-346h112q80 0 127 45.5t47 128.5t-47 127.5t-127 44.5h-112z"/>
<glyph horiz-adv-x="886" glyph-name="afii10045" unicode="Ы" d="M257 690l-65 -19v-284h133q118 0 191 -52t73 -141q0 -90 -73 -142t-191 -52h-306v8l65 16v647l-65 19v10h238v-10zM192 366v-346h112q80 0 127.5 45.5t47.5 128.5q0 82 -47.5 127t-127.5 45h-112zM863 690l-62 -19v-642l62 -19v-10h-234v10l65 19v642l-65 19v10h234v-10z "/>
<glyph horiz-adv-x="636" glyph-name="afii10046" unicode="Ь" d="M257 690l-65 -19v-284h133q118 0 191 -52t73 -141q0 -90 -73 -142t-191 -52h-306v8l65 16v647l-65 19v10h238v-10zM192 366v-346h112q80 0 127.5 45.5t47.5 128.5q0 82 -47.5 127t-127.5 45h-112z"/>
<glyph horiz-adv-x="704" glyph-name="afii10047" unicode="Э" d="M547 347h-363v20h363q-4 153 -67.5 234.5t-183.5 81.5q-63 0 -123 -27q-78 -33 -97 -133h-17v138l10 10l42 -25q80 60 208 60q155 0 248 -97q94 -95 94 -259q0 -163 -94 -260q-95 -96 -250 -96q-132 0 -212 60l-42 -25l-10 10v137h17q23 -99 98 -131q63 -27 125 -27 q125 0 189.5 83t64.5 246z"/>
<glyph horiz-adv-x="1002" glyph-name="afii10048" unicode="Ю" d="M19 0v10l65 19v642l-65 19v10h238v-10l-65 -19v-304h138q5 156 90 247q87 92 222 92q140 0 225 -97q87 -98 87 -259q0 -162 -86 -260q-86 -96 -226 -96q-139 0 -225 95q-85 96 -87 257h-138v-317l65 -19v-10h-238zM443 349q0 -162 53.5 -251t145.5 -89t145.5 89t53.5 251 q0 163 -54 252.5t-145 89.5t-145 -89.5t-54 -252.5z"/>
<glyph horiz-adv-x="659" glyph-name="afii10049" unicode="Я" d="M16 30l8 8q21 -15 42 -15q26 0 41 25t31 87l17 72q14 59 44.5 91t84.5 44q-92 11 -144 58t-52 120q0 84 68 132q69 48 182 48h302v-9l-65 -15v-647l65 -19v-10h-243v10l71 19v305h-65q-65 0 -97 -31t-48 -100l-17 -74q-15 -68 -46 -101.5t-85 -33.5q-59 0 -94 36z M468 354v326h-117q-71 0 -112 -42t-41 -121t41 -121t112 -42h117z"/>
<glyph horiz-adv-x="546" glyph-name="afii10065" unicode="а" d="M366 60l-3 3q-73 -69 -179 -69q-67 0 -101 30.5t-34 85.5q0 79 79 113q54 23 219 50l1 1h1h1h1h1h1l1 1h1h1h1h1h1l1 1h1h2v94q0 54 -28 85.5t-76 31.5q-39 0 -74 -23v-81q0 -30 -17 -48t-44 -18t-43.5 17t-16.5 46q0 56 58 89q58 34 139 34q95 0 150.5 -42t55.5 -110 v-305q0 -25 24 -25q22 0 33 11l7 -7q-27 -27 -91 -27q-66 0 -74 62zM363 86v175h-1h-1h-1l-1 -1h-1h-1h-1h-1h-1q-116 -18 -149 -36q-50 -27 -50 -101q0 -45 22 -69.5t61 -24.5q71 0 125 57z"/>
<glyph horiz-adv-x="595" glyph-name="afii10066" unicode="б" d="M107 403h4q24 46 77 73.5t119 27.5q112 0 179 -70q69 -71 69 -187q0 -117 -69 -184q-68 -68 -184 -68q-249 0 -249 334q0 94 20 165q34 114 131 165q47 24 112.5 32.5t114.5 13.5t66 22l13 -14q-20 -39 -53 -61t-69 -28t-75.5 -9t-74.5 -11t-64 -26.5t-47 -62t-20 -112.5 zM449 249q0 115 -38 177.5t-104 62.5t-104.5 -63.5t-38.5 -176.5t38.5 -176t104.5 -63t104 62.5t38 176.5z"/>
<glyph horiz-adv-x="543" glyph-name="afii10067" unicode="в" d="M19 491v9h298q76 0 121.5 -33t45.5 -90q0 -47 -32 -78.5t-87 -41.5q67 -9 105.5 -42.5t38.5 -83.5q0 -60 -52.5 -95.5t-139.5 -35.5h-298v8l60 16v452zM285 248h-102v-230h102q55 0 86 30t31 85t-31 85t-86 30zM183 481v-214h102q43 0 68 28t25 79t-25 79t-68 28h-102z "/>
<glyph horiz-adv-x="460" glyph-name="afii10068" unicode="г" d="M411 391l-32 89h-196v-451l90 -19v-10h-254v10l60 19v447l-60 15v9h408v-109h-16z"/>
<glyph horiz-adv-x="582" glyph-name="afii10069" unicode="д" d="M538 -134l-42 134h-410l-41 -134h-22v154h61q20 6 35.5 40.5t21.5 88.5l41 327l-60 15v9h431v-9l-60 -15v-456h67v-154h-22zM389 480h-188l-38 -328q-12 -102 -48 -132h274v460z"/>
<glyph horiz-adv-x="558" glyph-name="afii10070" unicode="е" d="M509 263l-14 -13h-349q0 -108 49.5 -166t144.5 -58q88 0 147 59l11 -12q-78 -78 -201 -78t-190.5 67.5t-67.5 181.5q0 119 70 189q71 71 181 71q97 0 161 -56q63 -56 63 -145q0 -22 -5 -40zM294 489q-62 0 -103.5 -59.5t-44.5 -164.5l266 15q0 102 -30.5 155.5 t-87.5 53.5z"/>
<glyph horiz-adv-x="837" glyph-name="afii10072" unicode="ж" d="M678 428v43q-4 2 -11 2q-37 0 -53 -72l-12 -53q-13 -60 -62 -84h20q77 0 115 -25t51 -84l12 -52q10 -47 20 -65t27 -18q15 0 29 11l7 -7q-27 -29 -86 -29q-43 0 -63 23t-33 80l-13 61q-12 50 -35 70t-72 20h-48v-220l56 -19v-10h-220v10l60 19v220h-48q-49 0 -72 -20.5 t-35 -69.5l-14 -61q-13 -57 -32.5 -80t-63.5 -23q-59 0 -86 29l7 7q16 -11 29 -11q18 0 28 18.5t20 64.5l11 52q14 60 51.5 84.5t115.5 24.5h19q-49 24 -62 84l-12 53q-17 72 -53 72q-5 0 -11 -2v-43q0 -25 -15 -40t-40 -15q-53 0 -53 57q0 37 25 56t63 19q84 0 106 -105 l12 -52q21 -83 110 -83v206l-60 19v10h224v-10l-60 -19v-206q89 0 110 83l12 52q23 105 106 105q38 0 62.5 -19t24.5 -56q0 -27 -14 -42t-38 -15q-26 0 -41 15t-15 40z"/>
<glyph horiz-adv-x="499" glyph-name="afii10073" unicode="з" d="M166 247v24q37 -3 65 -3q107 0 107 107q0 56 -26 84.5t-75 28.5q-48 0 -91 -30q-45 -29 -55 -99h-21v123l10 10l22 -18q66 30 153 30t138.5 -34t51.5 -91q0 -46 -33 -78t-91 -42q67 -9 105.5 -43t38.5 -85q0 -63 -57.5 -99.5t-159.5 -36.5q-82 0 -143 27q-60 29 -60 77 q0 24 15 39t38 15q24 0 39.5 -17t15.5 -47v-58q42 -20 86 -20q57 0 88 31.5t31 91.5q0 116 -125 116q-29 0 -67 -3z"/>
<glyph horiz-adv-x="610" glyph-name="afii10074" unicode="и" d="M19 0v10l60 19v442l-60 19v10h217v-10l-53 -19v-299l-3 -77l3 -3l244 361v18l-53 19v10h217v-10l-60 -19v-442l60 -19v-10h-217v10l53 19v299l3 77l-3 3l-244 -361v-18l53 -19v-10h-217z"/>
<glyph horiz-adv-x="610" glyph-name="afii10075" unicode="й" d="M365 587v60q0 25 14.5 40t38.5 15q23 0 37 -14.5t14 -36.5q0 -44 -52 -68q-51 -24 -112 -24q-58 -3 -110.5 23t-53.5 70q-3 34 32 46q35 11 58 -11q16 -15 14 -40v-60q60 -26 120 0zM19 0v10l60 19v442l-60 19v10h217v-10l-53 -19v-299l-3 -77l3 -3l244 361v18l-53 19v10 h217v-10l-60 -19v-442l60 -19v-10h-217v10l53 19v299l3 77l-3 3l-244 -361v-18l53 -19v-10h-217z"/>
<glyph horiz-adv-x="567" glyph-name="afii10076" unicode="к" d="M401 429v43q-5 3 -11 3q-39 0 -56 -74l-12 -53q-13 -61 -65 -84h18q81 0 120.5 -24.5t53.5 -84.5l12 -52q12 -47 22 -65t28 -18q14 0 30 11l8 -7q-29 -29 -88 -29q-45 0 -65.5 23t-35.5 80l-14 61q-12 49 -36.5 69.5t-75.5 20.5h-51v-220l57 -19v-10h-221v10l60 19v442 l-60 19v10h224v-10l-60 -19v-206q47 0 77.5 22t39.5 61l11 52q23 105 109 105q40 0 65 -18.5t25 -55.5q0 -27 -14.5 -42t-38.5 -15q-25 0 -40.5 15t-15.5 40z"/>
<glyph horiz-adv-x="582" glyph-name="afii10077" unicode="л" d="M177 149l35 327l-60 15v9h410v-9l-60 -15v-447l60 -19v-10h-216v10l53 19v451h-167l-34 -328q-16 -157 -102 -157q-34 0 -57 18.5t-23 53.5q0 27 13.5 41.5t37.5 14.5q25 0 40 -14.5t15 -39.5v-34q8 -2 9 -2q15 0 27.5 31t18.5 85z"/>
<glyph horiz-adv-x="718" glyph-name="afii10078" unicode="м" d="M684 490l-60 -19l21 -442l60 -19v-10h-224v10l60 19l-20 397l-188 -426h-29l-192 428l-21 -401l60 -19v-8h-138v8l60 19l22 444l-60 19v10h153l172 -390l173 390h151v-10z"/>
<glyph horiz-adv-x="609" glyph-name="afii10079" unicode="н" d="M19 0v10l60 19v442l-60 19v10h216v-10l-52 -19v-204h243v204l-52 19v10h216v-10l-60 -19v-442l60 -19v-10h-216v10l52 19v217h-243v-217l52 -19v-10h-216z"/>
<glyph horiz-adv-x="583" glyph-name="afii10080" unicode="о" d="M292 504q112 0 182 -70t70 -185q0 -116 -70 -185q-69 -69 -182 -69q-112 0 -183 69q-70 69 -70 185t70 185q70 70 183 70zM146 249q0 -113 39.5 -176t106.5 -63q68 0 107 63t39 176q0 115 -39 177.5t-107 62.5q-67 0 -106.5 -63t-39.5 -177z"/>
<glyph horiz-adv-x="609" glyph-name="afii10081" unicode="п" d="M19 0v10l60 19v447l-60 15v9h571v-9l-60 -15v-447l60 -19v-10h-216v10l52 19v451h-243v-451l52 -19v-10h-216z"/>
<glyph horiz-adv-x="582" glyph-name="afii10082" unicode="р" d="M273 -200h-254v10l60 19v638l-60 13v11l151 16l13 -14l-3 -55l3 -3q66 69 164 69q95 0 145.5 -65t50.5 -178q0 -126 -64 -196t-179 -70q-68 0 -117 27v-193l90 -19v-10zM183 413v-376q51 -27 98 -27q75 0 115.5 61.5t40.5 173.5q0 100 -38 162t-102 62q-67 0 -114 -56z "/>
<glyph horiz-adv-x="555" glyph-name="afii10083" unicode="с" d="M380 377v86q-43 26 -85 26q-69 0 -109 -60.5t-40 -163.5q0 -115 47.5 -177.5t138.5 -62.5q87 0 147 60l11 -12q-78 -78 -199 -78t-186.5 67.5t-65.5 185.5q0 120 66.5 188t187.5 68q84 0 148 -35q63 -35 63 -94q0 -30 -17 -47t-45 -17t-45 18t-17 48z"/>
<glyph horiz-adv-x="539" glyph-name="afii10084" unicode="т" d="M489 391l-31 89h-137v-451l60 -19v-10h-224v10l60 19v451h-137l-31 -89h-16v109h473v-109h-17z"/>
<glyph horiz-adv-x="601" glyph-name="afii10085" unicode="у" d="M288 -9l-218 480l-59 19v10h228v-10l-61 -19l164 -363l162 363l-83 19v10h169v-10l-64 -19l-212 -471q-49 -108 -86 -156q-34 -46 -83 -46q-36 0 -62 18.5t-26 54.5q0 26 13.5 40.5t37.5 14.5t39 -15t15 -40v-40q6 -3 11 -3q26 0 51.5 38.5t63.5 124.5z"/>
<glyph horiz-adv-x="815" glyph-name="afii10086" unicode="ф" d="M457 467l3 -3q49 41 127 41q94 0 141.5 -64t47.5 -178q0 -128 -58.5 -196.5t-166.5 -68.5q-45 0 -91 18v-187l60 -19v-10h-224v10l60 19v169l3 30l-3 3q-46 -37 -127 -37q-94 0 -142 64t-48 178q0 128 59.5 197t167.5 69q45 0 90 -18v203l-60 13v11l150 16l14 -14v-211z M276 20q46 0 80 30v419q-39 17 -71 17q-67 0 -103 -61t-36 -176q0 -106 34.5 -167.5t95.5 -61.5zM541 476q-47 0 -81 -30v-415q40 -17 71 -17q67 0 102.5 60.5t35.5 176.5q0 106 -34 165.5t-94 59.5z"/>
<glyph horiz-adv-x="585" glyph-name="afii10087" unicode="х" d="M344 10l61 19l-148 198l-152 -198l80 -19v-10h-169v10l66 19l162 214l-166 228l-57 19v10h225v-10l-60 -19l137 -186l142 186l-80 19v10h169v-10l-65 -19l-153 -202l177 -240l57 -19v-10h-226v10z"/>
<glyph horiz-adv-x="616" glyph-name="afii10088" unicode="ц" d="M571 -134l-41 134h-511v8l60 16v447l-60 19v10h216v-10l-52 -19v-451h240v451l-53 19v10h217v-10l-60 -19v-451h66v-154h-22z"/>
<glyph horiz-adv-x="587" glyph-name="afii10089" unicode="ч" d="M235 490l-52 -19v-107q0 -137 95 -137q74 0 126 44v200l-52 19v10h216v-10l-60 -19v-442l60 -19v-10h-224v10l60 19v222q-70 -56 -173 -56q-74 0 -113 40.5t-39 113.5v122l-60 19v10h216v-10z"/>
<glyph horiz-adv-x="864" glyph-name="afii10090" unicode="ш" d="M380 20v451l-50 19v10h205v-10l-51 -19v-451h197v451l-51 19v10h215v-10l-60 -19v-447l60 -16v-8h-826v8l60 16v447l-60 19v10h215v-10l-51 -19v-451h197z"/>
<glyph horiz-adv-x="874" glyph-name="afii10091" unicode="щ" d="M829 -134l-41 134h-769v8l60 16v447l-60 19v10h215v-10l-51 -19v-451h197v451l-50 19v10h205v-10l-51 -19v-451h197v451l-51 19v10h215v-10l-60 -19v-451h66v-154h-22z"/>
<glyph horiz-adv-x="645" glyph-name="afii10092" unicode="ъ" d="M33 500h333v-10l-60 -19v-186h111q87 0 140 -39t53 -104t-53 -103.5t-140 -38.5h-275v8l60 16v456h-122l-31 -89h-16v109zM385 266h-79v-248h79q55 0 87 32.5t32 91.5t-32 91.5t-87 32.5z"/>
<glyph horiz-adv-x="752" glyph-name="afii10093" unicode="ы" d="M294 0h-275v8l60 16v447l-60 19v10h224v-10l-60 -19v-186h111q87 0 140.5 -39t53.5 -104t-53 -103.5t-141 -38.5zM263 266h-80v-248h80q55 0 86.5 32.5t31.5 91.5t-31.5 91.5t-86.5 32.5zM732 490l-60 -19v-442l60 -19v-10h-224v10l60 19v442l-60 19v10h224v-10z"/>
<glyph horiz-adv-x="522" glyph-name="afii10094" unicode="ь" d="M294 0h-275v8l60 16v447l-60 19v10h224v-10l-60 -19v-186h111q87 0 140.5 -39t53.5 -104t-53 -103.5t-141 -38.5zM263 266h-80v-248h80q55 0 86.5 32.5t31.5 91.5t-31.5 91.5t-86.5 32.5z"/>
<glyph horiz-adv-x="538" glyph-name="afii10095" unicode="э" d="M393 247h-213v20h213q-3 105 -46.5 163t-117.5 58q-49 0 -90 -30q-42 -29 -52 -99h-21v123l10 10l22 -18q58 30 135 30q127 0 196.5 -69t69.5 -188q0 -118 -67.5 -185t-192.5 -67q-79 0 -136 28q-58 28 -58 79q0 24 15 39t38 15q24 0 39.5 -17t15.5 -47v-59 q48 -23 87 -23q72 0 112 62.5t41 174.5z"/>
<glyph horiz-adv-x="802" glyph-name="afii10096" unicode="ю" d="M19 0v10l60 19v442l-60 19v10h216v-10l-52 -19v-205h98q5 108 71 173q67 65 170 65q107 0 174 -70t67 -185q0 -117 -67 -185q-66 -69 -174 -69q-106 0 -174 68q-65 67 -67 183h-98v-217l52 -19v-10h-216zM656 249q0 115 -35.5 177.5t-98.5 62.5q-60 0 -98 -63 q-37 -61 -37 -177t37 -177q38 -62 98 -62q62 0 98 63t36 176z"/>
<glyph horiz-adv-x="570" glyph-name="afii10097" unicode="я" d="M16 24l7 7q16 -11 30 -11q18 0 28 16t23 64l14 47q25 80 114 97q-73 7 -115 40.5t-42 86.5q0 59 52.5 94t139.5 35h283v-9l-60 -15v-447l60 -19v-10h-224v10l60 19v206h-50q-51 0 -79 -20.5t-41 -66.5l-14 -53q-16 -52 -30 -72q-21 -28 -69 -28q-58 0 -87 29zM303 254h83 v227h-83q-57 0 -89.5 -29.5t-32.5 -83.5t32.5 -84t89.5 -30z"/>
<glyph horiz-adv-x="558" glyph-name="uni0450" unicode="ѐ" d="M509 263l-14 -13h-349q0 -108 49.5 -166t144.5 -58q88 0 147 59l11 -12q-78 -78 -201 -78t-190.5 67.5t-67.5 181.5q0 119 70 189q71 71 181 71q97 0 161 -56q63 -56 63 -145q0 -22 -5 -40zM294 489q-62 0 -103.5 -59.5t-44.5 -164.5l266 15q0 102 -30.5 155.5 t-87.5 53.5zM174 646l57 58l138 -141l-10 -11z"/>
<glyph horiz-adv-x="558" glyph-name="afii10071" unicode="ё" d="M509 263l-14 -13h-349q0 -108 49.5 -166t144.5 -58q88 0 147 59l11 -12q-78 -78 -201 -78t-190.5 67.5t-67.5 181.5q0 119 70 189q71 71 181 71q97 0 161 -56q63 -56 63 -145q0 -22 -5 -40zM294 489q-62 0 -103.5 -59.5t-44.5 -164.5l266 15q0 102 -30.5 155.5 t-87.5 53.5zM111 610q0 27 18 45.5t46 18.5t46 -18.5t18 -45.5q0 -28 -18 -46t-46 -18t-46 18t-18 46zM335 610q0 27 18.5 45.5t45.5 18.5q28 0 46.5 -18.5t18.5 -45.5q0 -28 -18.5 -46t-46.5 -18q-27 0 -45.5 18t-18.5 46z"/>
<glyph horiz-adv-x="610" glyph-name="afii10099" unicode="ђ" d="M19 0v10l60 19v559h-60v8l60 12v79l-60 13v11l151 16l13 -14v-105h182v-20h-182v-88l-3 -68l3 -3q37 35 90.5 55t105.5 20q76 0 114 -44.5t38 -127.5v-316q0 -71 -37.5 -123.5t-116.5 -97.5l-11 11q61 88 61 210v299q0 154 -99 154q-36 0 -77 -17.5t-68 -44.5v-378 l60 -19v-10h-224z"/>
<glyph horiz-adv-x="460" glyph-name="afii10100" unicode="ѓ" d="M168 552l-11 11l139 141l57 -58zM411 391l-32 89h-196v-451l90 -19v-10h-254v10l60 19v447l-60 15v9h408v-109h-16z"/>
<glyph horiz-adv-x="545" glyph-name="afii10101" unicode="є" d="M39 244q0 121 71.5 190.5t201.5 69.5q78 0 135 -30l22 18l10 -10v-123h-20q-7 47 -34 80q-40 50 -110 50q-78 0 -122.5 -58.5t-46.5 -163.5h241v-20h-241q0 -106 47.5 -163.5t138.5 -57.5q88 0 147 59l11 -12q-78 -78 -200 -78q-120 0 -185.5 67t-65.5 182z"/>
<glyph horiz-adv-x="453" glyph-name="afii10102" unicode="ѕ" d="M56 9l-10 10v109h20q27 -118 148 -118q58 0 93.5 27t35.5 74q0 42 -29 60q-28 18 -99 36l-50 14q-12 3 -43 17q-36 17 -52.5 44t-20.5 76q0 69 44.5 107.5t132.5 38.5q70 0 127 -30l22 17l10 -10v-108h-21q-23 116 -134 116q-51 0 -81 -25.5t-30 -67.5q0 -36 24.5 -54.5 t87.5 -36.5l45 -15q19 -6 40 -15q26 -10 40 -21q62 -47 57 -112q0 -70 -49 -108.5t-148 -38.5q-81 0 -139 31z"/>
<glyph glyph-name="afii10103" unicode="і" d="M243 0h-224v10l60 19v438l-60 13v11l151 16l13 -14v-464l60 -19v-10zM73 589q-20 20 -20 51t20 51t51 20t51 -20q21 -20 21 -51t-21 -51q-20 -20 -51 -20t-51 20z"/>
<glyph glyph-name="afii10104" unicode="ї" d="M243 0h-224v10l60 19v438l-60 13v11l151 16l13 -14v-464l60 -19v-10zM44 687q27 0 45.5 -18t18.5 -46t-18.5 -46t-45.5 -18q-28 0 -46 18t-18 46t18 46t46 18zM208 687q28 0 46.5 -18t18.5 -46t-18.5 -46t-46.5 -18q-27 0 -45.5 18t-18.5 46t18.5 46t45.5 18z"/>
<glyph glyph-name="afii10105" unicode="ј" d="M79 16v451l-60 13v11l151 16l13 -14v-477q0 -71 -37.5 -123.5t-116.5 -97.5l-11 11q61 88 61 210zM73 589q-20 20 -20 51t20 51t51 20t51 -20q21 -20 21 -51t-21 -51q-20 -20 -51 -20t-51 20z"/>
<glyph horiz-adv-x="841" glyph-name="afii10106" unicode="љ" d="M613 0h-274v8l60 16v456h-167l-34 -328q-16 -157 -102 -157q-34 0 -57 18.5t-23 53.5q0 27 13.5 41.5t37.5 14.5q25 0 40 -14.5t15 -39.5v-34q8 -2 9 -2q15 0 27.5 31t18.5 85l35 327l-60 15v9h410v-9l-60 -16v-190h111q87 0 140.5 -39t53.5 -104t-53 -103.5t-141 -38.5z M582 266h-80v-248h80q55 0 86.5 32.5t31.5 91.5t-31.5 91.5t-86.5 32.5z"/>
<glyph horiz-adv-x="862" glyph-name="afii10107" unicode="њ" d="M641 0h-267v10l52 17v219h-243v-217l52 -19v-10h-216v10l60 19v442l-60 19v10h216v-10l-52 -19v-204h243v204l-52 19v10h216v-10l-60 -19v-204h111q84 0 135.5 -37t51.5 -97q0 -61 -51.5 -97t-135.5 -36zM609 246h-79v-228h79q52 0 82 30t30 84t-30 84t-82 30z"/>
<glyph horiz-adv-x="610" glyph-name="afii10108" unicode="ћ" d="M19 596l60 12v79l-60 13v11l151 16l13 -14v-105h182v-20h-182v-88l-3 -68l3 -3q37 35 90.5 55t105.5 20q76 0 114 -44.5t38 -127.5v-303l60 -19v-10h-217v10l53 19v286q0 154 -99 154q-36 0 -77 -17.5t-68 -44.5v-378l53 -19v-10h-217v10l60 19v559h-60v8z"/>
<glyph horiz-adv-x="567" glyph-name="afii10109" unicode="ќ" d="M401 429v43q-5 3 -11 3q-39 0 -56 -74l-12 -53q-13 -61 -65 -84h18q81 0 120.5 -24.5t53.5 -84.5l12 -52q12 -47 22 -65t28 -18q14 0 30 11l8 -7q-29 -29 -88 -29q-45 0 -65.5 23t-35.5 80l-14 61q-12 49 -36.5 69.5t-75.5 20.5h-51v-220l57 -19v-10h-221v10l60 19v442 l-60 19v10h224v-10l-60 -19v-206q47 0 77.5 22t39.5 61l11 52q23 105 109 105q40 0 65 -18.5t25 -55.5q0 -27 -14.5 -42t-38.5 -15q-25 0 -40.5 15t-15.5 40zM216 552l-11 11l139 141l57 -58z"/>
<glyph horiz-adv-x="610" glyph-name="uni045D" unicode="ѝ" d="M19 0v10l60 19v442l-60 19v10h217v-10l-53 -19v-299l-3 -77l3 -3l244 361v18l-53 19v10h217v-10l-60 -19v-442l60 -19v-10h-217v10l53 19v299l3 77l-3 3l-244 -361v-18l53 -19v-10h-217zM187 646l57 58l138 -141l-10 -11z"/>
<glyph horiz-adv-x="601" glyph-name="afii10110" unicode="ў" d="M377 587v60q0 25 14.5 40t38.5 15q23 0 37 -14.5t14 -36.5q0 -44 -52 -68q-51 -24 -112 -24q-58 -3 -110.5 23t-53.5 70q-3 34 32 46q35 11 58 -11q16 -15 14 -40v-60q60 -26 120 0zM288 -9l-218 480l-59 19v10h228v-10l-61 -19l164 -363l162 363l-83 19v10h169v-10 l-64 -19l-212 -471q-49 -108 -86 -156q-34 -46 -83 -46q-36 0 -62 18.5t-26 54.5q0 26 13.5 40.5t37.5 14.5t39 -15t15 -40v-40q6 -3 11 -3q26 0 51.5 38.5t63.5 124.5z"/>
<glyph horiz-adv-x="609" glyph-name="afii10193" unicode="џ" d="M294 -134l-21 134h-254v8l60 16v447l-60 19v10h216v-10l-52 -19v-451h243v451l-52 19v10h216v-10l-60 -19v-447l60 -16v-8h-254l-21 -134h-21z"/>
<glyph horiz-adv-x="533" glyph-name="afii10050" unicode="Ґ" d="M19 691v9h420l45 102h17v-122h-309v-651l95 -19v-10h-268v10l65 19v647z"/>
<glyph horiz-adv-x="427" glyph-name="afii10098" unicode="ґ" d="M394 589v-109h-211v-451l90 -19v-10h-254v10l60 19v447l-60 15v9h324l34 89h17z"/>
<glyph horiz-adv-x="734" glyph-name="uni04D8" unicode="Ә" d="M96 593l-11 11q99 102 256 102q156 0 251 -96q94 -95 94 -259t-94 -261q-93 -96 -243 -96q-135 0 -218 77q-83 78 -83 202q0 35 7 55l18 19h500q0 155 -68.5 241t-199.5 86q-129 0 -209 -81zM348 11q101 0 162 84.5t63 235.5l-419 -23q0 -147 50 -222t144 -75z"/>
<glyph horiz-adv-x="558" glyph-name="afii10846" unicode="ә" d="M49 235l14 14h349q0 108 -48.5 166t-141.5 58q-85 0 -144 -59l-11 12q77 78 198 78q125 0 189 -69q65 -70 65 -180q0 -118 -71 -189t-180 -71q-97 0 -161 56q-63 55 -63 145q0 21 5 39zM264 10q62 0 103.5 59.5t44.5 164.5l-266 -15q0 -102 30.5 -155.5t87.5 -53.5z"/>
</font>
</defs>
</svg>
